<?xml version="1.0" encoding="utf-8"?>
<svg version="1.1" xmlns:xlink="http://www.w3.org/1999/xlink" width="25px" height="25px" xmlns="http://www.w3.org/2000/svg">
  <g transform="matrix(1 0 0 1 -20 -20 )">
    <path d="M 20.838341346153847 15.625  C 21.048677884615387 15.72265625  21.153846153846153 15.879991319444443  21.153846153846153 16.097005208333332  L 21.153846153846153 20.3125  C 21.153846153846153 21.603732638888886  20.73066907051282 22.707790798611114  19.884314903846153 23.624674479166664  C 19.03796073717949 24.54155815972222  18.018830128205128 25  16.826923076923077 25  L 4.326923076923077 25  C 3.1350160256410255 25  2.115885416666667 24.54155815972222  1.26953125 23.624674479166664  C 0.4231770833333333 22.707790798611114  0 21.603732638888886  0 20.3125  L 0 6.770833333333334  C 0 5.479600694444442  0.4231770833333333 4.375542534722221  1.26953125 3.4586588541666656  C 2.115885416666667 2.5417751736111076  3.1350160256410255 2.0833333333333344  4.326923076923077 2.0833333333333344  L 8.158052884615383 2.0833333333333344  C 8.288261217948719 2.0833333333333344  8.400941506410257 2.134874131944442  8.49609375 2.2379557291666656  C 8.591245993589745 2.3410373263888866  8.638822115384617 2.4631076388888866  8.638822115384617 2.6041666666666656  C 8.638822115384617 2.8971354166666656  8.508613782051283 3.0707465277777763  8.248197115384617 3.125  C 7.476963141025641 3.4071180555555554  6.810897435897437 3.7326388888888866  6.25 4.1015625  C 6.149839743589744 4.144965277777776  6.069711538461538 4.166666666666666  6.009615384615385 4.166666666666666  L 4.326923076923077 4.166666666666666  C 3.6658653846153846 4.166666666666666  3.099959935897436 4.421657986111108  2.629206730769231 4.931640625  C 2.158453525641026 5.441623263888887  1.9230769230769231 6.0546875  2 6.770833333333334  L 2 20.3125  C 1.9230769230769231 21.028645833333336  2.158453525641026 21.641710069444443  2.629206730769231 22.151692708333336  C 3.099959935897436 22.66167534722222  3.6658653846153846 22.916666666666664  4.326923076923077 23  L 16.826923076923077 23  C 17.487980769230766 22.916666666666664  18.05388621794872 22.66167534722222  18.524639423076923 22.151692708333336  C 18.995392628205128 21.641710069444443  19.230769230769234 21.028645833333336  19.230769230769234 20.3125  L 19.230769230769234 16.829427083333332  C 19.230769230769234 16.62326388888889  19.32091346153846 16.465928819444443  19.501201923076923 16.357421875  C 19.781650641025642 16.21636284722222  20.052083333333336 16.015625  20.3125 15.755208333333332  C 20.472756410256412 15.581597222222221  20.64803685897436 15.538194444444443  20.838341346153847 15.625  Z M 25 7.291666666666666  C 25 7.573784722222221  24.90484775641026 7.817925347222221  24.714543269230766 8.024088541666666  L 18.9453125 14.274088541666668  C 18.76502403846154 14.48025173611111  18.53966346153846 14.583333333333332  18.269230769230766 14.583333333333332  C 18.14903846153846 14.583333333333332  18.023838141025642 14.556206597222221  17.893629807692307 14.501953125  C 17.503004807692307 14.317491319444443  17.307692307692307 13.997395833333332  17.307692307692307 13.541666666666668  L 17.307692307692307 10.416666666666666  L 14.903846153846153 10.416666666666666  C 11.668669871794874 10.416666666666666  9.475160256410257 11.127387152777777  8.323317307692307 12.548828125  C 7.131410256410257 14.03537326388889  6.760817307692308 16.6015625  7.211538461538461 20.247395833333336  C 7.241586538461539 20.496961805555554  7.141426282051283 20.681423611111107  6.9110576923076925 20.80078125  C 6.830929487179488 20.822482638888886  6.770833333333334 20.833333333333336  6.730769230769231 20.833333333333336  C 6.570512820512821 20.833333333333336  6.440304487179488 20.762803819444443  6.340144230769231 20.621744791666664  C 6.239983974358975 20.469835069444443  6.134815705128205 20.301649305555554  6.024639423076923 20.1171875  C 5.914463141025642 19.932725694444443  5.716646634615385 19.56108940972222  5.431189903846153 19.002278645833336  C 5.145733173076923 18.443467881944443  4.897836538461538 17.903645833333332  4.6875 17.3828125  C 4.477163461538462 16.861979166666668  4.284354967948718 16.243489583333332  4.109074519230769 15.52734375  C 3.9337940705128207 14.811197916666668  3.8461538461538463 14.149305555555552  3.8461538461538463 13.541666666666668  C 3.8461538461538463 13.00998263888889  3.8636818910256414 12.516276041666668  3.8987379807692304 12.060546875  C 3.9337940705128207 11.604817708333332  4.00390625 11.116536458333332  4.109074519230769 10.595703125  C 4.214242788461538 10.074869791666666  4.354467147435899 9.597439236111107  4.529747596153847 9.163411458333334  C 4.705028044871796 8.729383680555555  4.940404647435899 8.287217881944443  5.235877403846153 7.8369140625  C 5.531350160256411 7.386610243055555  5.874399038461538 6.985134548611108  6.265024038461539 6.632486979166666  C 6.655649038461539 6.279839409722221  7.128906250000002 5.946180555555555  7.684795673076923 5.631510416666666  C 8.240685096153847 5.316840277777776  8.864182692307693 5.0537109375  9.555288461538462 4.842122395833334  C 10.24639423076923 4.630533854166666  11.045172275641027 4.465060763888887  11.951622596153847 4.345703125  C 12.858072916666668 4.226345486111108  13.842147435897436 4.166666666666666  14.903846153846153 4.166666666666666  L 17.307692307692307 4.166666666666666  L 17.307692307692307 1.0416666666666656  C 17.307692307692307 0.5859375  17.503004807692307 0.26584201388888673  17.893629807692307 0.08138020833333426  C 18.023838141025642 0.02712673611111327  18.14903846153846 0  18.269230769230766 0  C 18.529647435897438 0  18.755008012820515 0.10308159722222376  18.9453125 0.30924479166666574  L 24.714543269230766 6.559244791666666  C 24.90484775641026 6.765407986111108  25 7.009548611111108  25 7.291666666666666  Z " fill-rule="nonzero" fill="#00a407" stroke="none" transform="matrix(1 0 0 1 20 20 )" />
  </g>
</svg>