<?xml version="1.0" encoding="utf-8"?>
<svg version="1.1" xmlns:xlink="http://www.w3.org/1999/xlink" width="25px" height="25px" xmlns="http://www.w3.org/2000/svg">
  <g transform="matrix(1 0 0 1 -20 -20 )">
    <path d="M 11.907958984375 10.6689453125  C 10.992431640625 11.8896484375  9.8876953125 12.5  8.59375 12.5  C 7.2998046875 12.5  6.195068359375 11.8896484375  5.279541015625 10.6689453125  C 4.364013671875 9.4482421875  3.90625 7.975260416666666  3.90625 6.25  C 3.90625 4.524739583333334  4.364013671875 3.0517578125  5.279541015625 1.8310546875  C 6.195068359375 0.6103515625  7.2998046875 0  8.59375 0  C 9.8876953125 0  10.992431640625 0.6103515625  11.907958984375 1.8310546875  C 12.823486328125 3.0517578125  13.28125 4.524739583333334  13.28125 6.25  C 13.28125 7.975260416666666  12.823486328125 9.4482421875  11.907958984375 10.6689453125  Z M 20.3125 8.854166666666666  L 20.3125 14.583333333333332  L 24.609375 14.583333333333332  C 24.715169270833336 14.583333333333332  24.806722005208336 14.634874131944443  24.884033203125 14.737955729166668  C 24.961344401041668 14.84103732638889  25 14.96310763888889  25 15.104166666666668  L 25 18.229166666666668  C 25 18.370225694444443  24.961344401041668 18.492296006944443  24.884033203125 18.595377604166668  C 24.806722005208336 18.69845920138889  24.715169270833336 18.75  24.609375 18.75  L 20.3125 18.75  L 20.3125 24.479166666666664  C 20.3125 24.620225694444446  20.273844401041668 24.742296006944446  20.196533203125 24.845377604166664  C 20.119222005208336 24.948459201388886  20.027669270833336 25  19.921875 25  L 17.578125 25  C 17.472330729166668 25  17.380777994791668 24.948459201388886  17.303466796875 24.845377604166664  C 17.226155598958336 24.742296006944446  17.1875 24.620225694444446  17.1875 24.479166666666664  L 17.1875 18.75  L 12.890625 18.75  C 12.784830729166668 18.75  12.693277994791668 18.69845920138889  12.615966796875 18.595377604166668  C 12.538655598958334 18.492296006944443  12.5 18.370225694444443  12.5 18.229166666666668  L 12.5 15.104166666666668  C 12.5 14.96310763888889  12.538655598958334 14.84103732638889  12.615966796875 14.737955729166668  C 12.693277994791668 14.634874131944443  12.784830729166668 14.583333333333332  12.890625 14.583333333333332  L 17.1875 14.583333333333332  L 17.1875 8.854166666666666  C 17.1875 8.713107638888888  17.226155598958336 8.591037326388888  17.303466796875 8.487955729166666  C 17.380777994791668 8.384874131944445  17.472330729166668 8.333333333333334  17.578125 8.333333333333334  L 19.921875 8.333333333333334  C 20.027669270833336 8.333333333333334  20.119222005208336 8.384874131944445  20.196533203125 8.487955729166666  C 20.273844401041668 8.591037326388888  20.3125 8.713107638888888  20.3125 8.854166666666666  Z M 11.328125 15.104166666666668  L 11.328125 18.229166666666668  C 11.328125 18.79340277777778  11.482747395833334 19.28168402777778  11.7919921875 19.694010416666664  C 12.101236979166668 20.106336805555554  12.467447916666668 20.3125  12.890625 20.3125  L 16.015625 20.3125  L 16.015625 24.186197916666664  C 15.462239583333334 24.728732638888886  14.766438802083334 25  13.92822265625 25  L 3.25927734375 25  C 2.274576822916667 25  1.4851888020833335 24.625651041666664  0.89111328125 23.876953125  C 0.29703776041666663 23.128255208333336  0 22.097439236111114  0 20.784505208333336  C 0 20.20941840277778  0.014241536458333332 19.64789496527778  0.042724609375 19.099934895833336  C 0.07120768229166667 18.55197482638889  0.128173828125 17.960611979166668  0.213623046875 17.325846354166668  C 0.299072265625 16.691080729166668  0.4069010416666667 16.102430555555554  0.537109375 15.559895833333332  C 0.6673177083333334 15.01736111111111  0.84228515625 14.488389756944443  1.06201171875 13.972981770833332  C 1.2817382812500002 13.457573784722221  1.5340169270833335 13.018120659722221  1.81884765625 12.654622395833332  C 2.103678385416667 12.291124131944445  2.451578776041667 12.000868055555555  2.862548828125 11.783854166666666  C 3.2735188802083335 11.566840277777777  3.727213541666667 11.458333333333334  4.2236328125 11.458333333333334  C 4.378255208333334 11.458333333333334  4.536946614583334 11.55056423611111  4.69970703125 11.735026041666666  C 5.342610677083334 12.396918402777777  5.971272786458334 12.89333767361111  6.585693359375 13.224283854166668  C 7.200113932291667 13.555230034722221  7.869466145833334 13.720703125  8.59375 13.720703125  C 9.318033854166668 13.720703125  9.987386067708334 13.555230034722221  10.601806640625 13.224283854166668  C 11.216227213541668 12.89333767361111  11.844889322916668 12.396918402777777  12.48779296875 11.735026041666666  C 12.650553385416668 11.55056423611111  12.809244791666668 11.458333333333334  12.9638671875 11.458333333333334  C 14.0380859375 11.458333333333334  14.921061197916668 11.979166666666666  15.61279296875 13.020833333333332  L 12.890625 13.020833333333332  C 12.467447916666668 13.020833333333332  12.101236979166668 13.226996527777779  11.7919921875 13.639322916666668  C 11.482747395833334 14.051649305555552  11.328125 14.539930555555552  11.328125 15.104166666666668  Z " fill-rule="nonzero" fill="#00a407" stroke="none" transform="matrix(1 0 0 1 20 20 )" />
  </g>
</svg>