<?xml version="1.0" encoding="utf-8"?>
<svg version="1.1" xmlns:xlink="http://www.w3.org/1999/xlink" width="19px" height="25px" xmlns="http://www.w3.org/2000/svg">
  <g transform="matrix(1 0 0 1 -20 -20 )">
    <path d="M 18.505208333333336 7.142857142857142  L 12.666666666666666 7.142857142857142  L 12.666666666666666 0.5580357142857151  C 12.848090277777779 0.6882440476190466  12.996527777777779 0.818452380952378  13.111979166666666 0.9486607142857151  L 18.158854166666664 6.640625  C 18.274305555555557 6.770833333333331  18.389756944444446 6.938244047619047  18.505208333333336 7.142857142857142  Z M 11.083333333333334 0  L 11.083333333333334 7.589285714285715  C 11.083333333333334 7.96130952380952  11.198784722222221 8.277529761904761  11.4296875 8.537946428571427  C 11.660590277777779 8.798363095238093  11.940972222222221 8.928571428571427  12.270833333333334 8.928571428571427  L 19 8.928571428571427  L 19 23.660714285714285  C 19 24.032738095238095  18.88454861111111 24.348958333333332  18.653645833333336 24.609375  C 18.422743055555557 24.869791666666668  18.14236111111111 25  17.8125 25  L 1.1875 25  C 0.8576388888888891 25  0.5772569444444445 24.869791666666668  0.3463541666666667 24.609375  C 0.11545138888888887 24.348958333333332  0 24.032738095238095  0 23.660714285714285  L 0 1.339285714285715  C 0 0.9672619047619041  0.11545138888888887 0.6510416666666657  0.3463541666666667 0.390625  C 0.5772569444444445 0.13020833333333426  0.8576388888888891 0  1.1875 0  L 11.083333333333334 0  Z " fill-rule="nonzero" fill="#00a407" stroke="none" transform="matrix(1 0 0 1 20 20 )" />
  </g>
</svg>