<?xml version="1.0" encoding="utf-8"?>
<svg version="1.1" xmlns:xlink="http://www.w3.org/1999/xlink" width="15px" height="15px" xmlns="http://www.w3.org/2000/svg">
  <g transform="matrix(1 0 0 1 -21 -20 )">
    <path d="M 9.059495192307692 7.314453125000001  C 9.173677884615385 7.190755208333332  9.230769230769232 7.044270833333332  9.230769230769232 6.875000000000001  C 9.230769230769232 6.705729166666666  9.173677884615385 6.559244791666666  9.059495192307692 6.435546875000001  C 8.945312500000002 6.311848958333334  8.810096153846155 6.249999999999999  8.653846153846153 6.249999999999999  L 6.346153846153846 6.249999999999999  C 6.189903846153847 6.249999999999999  6.054687500000001 6.311848958333334  5.9405048076923075 6.435546875000001  C 5.826322115384616 6.559244791666666  5.769230769230769 6.705729166666666  5.769230769230769 6.875000000000001  C 5.769230769230769 7.044270833333332  5.826322115384616 7.190755208333332  5.9405048076923075 7.314453125000001  C 6.054687500000001 7.438151041666666  6.189903846153847 7.5  6.346153846153846 7.5  L 8.653846153846153 7.5  C 8.810096153846155 7.5  8.945312500000002 7.438151041666666  9.059495192307692 7.314453125000001  Z M 14.251802884615385 4.560546875000001  C 14.365985576923077 4.684244791666666  14.423076923076923 4.830729166666666  14.423076923076923 5.000000000000001  L 14.423076923076923 14.375  C 14.423076923076923 14.544270833333332  14.365985576923077 14.690755208333332  14.251802884615385 14.814453125  C 14.137620192307693 14.938151041666668  14.002403846153848 15  13.846153846153847 15  L 1.153846153846154 15  C 0.9975961538461541 15  0.8623798076923078 14.938151041666668  0.7481971153846154 14.814453125  C 0.6340144230769231 14.690755208333332  0.576923076923077 14.544270833333332  0.576923076923077 14.375  L 0.576923076923077 5.000000000000001  C 0.576923076923077 4.830729166666666  0.6340144230769231 4.684244791666666  0.7481971153846154 4.560546875000001  C 0.8623798076923078 4.436848958333332  0.9975961538461541 4.374999999999999  1.153846153846154 4.374999999999999  L 13.846153846153847 4.374999999999999  C 14.002403846153848 4.374999999999999  14.137620192307693 4.436848958333332  14.251802884615385 4.560546875000001  Z M 14.828725961538462 0.18554687499999944  C 14.942908653846157 0.30924479166666463  15.000000000000004 0.45572916666666463  15 0.6249999999999994  L 15 3.1250000000000004  C 15.000000000000004 3.294270833333332  14.942908653846157 3.440755208333332  14.828725961538462 3.5644531250000004  C 14.71454326923077 3.6881510416666656  14.579326923076925 3.75  14.423076923076923 4  L 0.576923076923077 4  C 0.4206730769230771 3.75  0.28545673076923095 3.6881510416666656  0.17127403846153846 3.5644531250000004  C 0.057091346153846236 3.440755208333332  0 3.294270833333332  0 3.1250000000000004  L 0 0.6249999999999994  C 0 0.45572916666666463  0.057091346153846236 0.30924479166666463  0.17127403846153846 0.18554687499999944  C 0.28545673076923095 0.06184895833333259  0.4206730769230771 0  0.576923076923077 0  L 14.423076923076923 0  C 14.579326923076925 0  14.71454326923077 0.06184895833333259  14.828725961538462 0.18554687499999944  Z " fill-rule="nonzero" fill="#2e2e2e" stroke="none" transform="matrix(1 0 0 1 21 20 )" />
  </g>
</svg>