<?xml version="1.0" encoding="utf-8"?>
<svg version="1.1" xmlns:xlink="http://www.w3.org/1999/xlink" width="25px" height="11px" xmlns="http://www.w3.org/2000/svg">
  <g transform="matrix(1 0 0 1 -315 -10 )">
    <path d="M 24.855324074074073 5.135240572171651  C 24.95177469135803 5.230602514087559  25.000000000000007 5.340268747290853  25 5.464239271781534  C 25.000000000000007 5.597745990463805  24.95177469135803 5.7121803207628945  24.855324074074073 5.807542262678804  L 19.29976851851852 10.871261378413523  C 19.1454475308642 11.004768097095793  18.976658950617285 11.033376679670567  18.79340277777778 10.957087126137841  C 18.610146604938276 10.871261378413523  18.51851851851852 10.732986562635457  18.51851851851852 10.542262678803642  L 18.51851851851852 7.338101430429129  L 0.4629629629629629 7.338101430429129  C 0.3279320987654321 7.338101430429129  0.2170138888888889 7.295188556566971  0.13020833333333331 7.209362808842652  C 0.043402777777777776 7.123537061118335  0 7.0138708279150395  0 6.880364109232769  L 0 4.133940182054616  C 0 4.000433463372345  0.043402777777777776 3.8907672301690504  0.13020833333333331 3.8049414824447334  C 0.2170138888888889 3.7191157347204165  0.3279320987654321 3.6762028608582575  0.4629629629629629 3.6762028608582575  L 18.51851851851852 3.6762028608582575  L 18.51851851851852 0.47204161248374565  C 18.51851851851852 0.27178153446033837  18.610146604938276 0.1335067186822707  18.79340277777778 0.05721716514954511  C 18.976658950617285 -0.019072388383182926  19.1454475308642 0.00476809709579451  19.29976851851852 0.1287386215864762  L 24.855324074074073 5.135240572171651  Z " fill-rule="nonzero" fill="#dddddd" stroke="none" transform="matrix(1 0 0 1 315 10 )" />
  </g>
</svg>