<?xml version="1.0" encoding="utf-8"?>
<svg version="1.1" xmlns:xlink="http://www.w3.org/1999/xlink" width="25px" height="11px" xmlns="http://www.w3.org/2000/svg">
  <g transform="matrix(1 0 0 1 0 -10 )">
    <path d="M 24.869791666666664 3.7906371911573475  C 24.95659722222222 3.8764629388816645  25 3.986129172084958  25 4.1196358907672295  L 25 6.866059817945384  C 25 6.999566536627654  24.95659722222222 7.10923276983095  24.869791666666664 7.195058517555267  C 24.78298611111111 7.2808842652795835  24.67206790123457 7.3237971391417425  24.537037037037038 7.3237971391417425  L 6.481481481481481 7.3237971391417425  L 6.481481481481481 10.527958387516254  C 6.481481481481481 10.728218465539662  6.389853395061729 10.866493281317727  6.206597222222222 10.942782834850455  C 6.023341049382717 11.019072388383181  5.854552469135803 10.995231902904205  5.700231481481482 10.871261378413523  L 0.14467592592592593 5.864759427828349  C 0.048225308641975446 5.769397485912439  0 5.659731252709145  0 5.535760728218466  C 0 5.402254009536193  0.048225308641975446 5.287819679237104  0.14467592592592593 5.192457737321196  L 5.700231481481482 0.1287386215864762  C 5.854552469135803 -0.004768097095798174  6.023341049382717 -0.03337667967057012  6.206597222222222 0.04291287386215914  C 6.389853395061729 0.1287386215864762  6.481481481481481 0.26701343736454264  6.481481481481481 0.45773732119635846  L 6.481481481481481 3.6618985695708712  L 24.537037037037038 3.6618985695708712  C 24.67206790123457 3.6618985695708712  24.78298611111111 3.7048114434330306  24.869791666666664 3.7906371911573475  Z " fill-rule="nonzero" fill="#dddddd" stroke="none" transform="matrix(1 0 0 1 0 10 )" />
  </g>
</svg>