<?xml version="1.0" encoding="utf-8"?>
<svg version="1.1" xmlns:xlink="http://www.w3.org/1999/xlink" width="8px" height="5px" xmlns="http://www.w3.org/2000/svg">
  <g transform="matrix(1 0 0 1 -46 -18 )">
    <path d="M 7.919839679358717 0.515463917525773  C 7.973279893119573 0.5727376861397465  8 0.6386025200458184  8 0.7130584192439865  C 8 0.7875143184421529  7.973279893119573 0.8533791523482237  7.919839679358717 0.9106529209621994  L 4.18436873747495 4.914089347079037  C 4.130928523714095 4.971363115693011  4.069472277889112 5  4 5  C 3.930527722110889 5  3.8690714762859058 4.971363115693011  3.81563126252505 4.914089347079037  L 0.08016032064128256 0.9106529209621994  C 0.0267201068804276 0.8533791523482237  0 0.7875143184421529  0 0.7130584192439865  C 0 0.6386025200458184  0.0267201068804276 0.5727376861397465  0.08016032064128256 0.515463917525773  L 0.48096192384769537 0.08591065292096245  C 0.5344021376085506 0.028636884306986743  0.5958583834335338 0  0.6653306613226453 0  C 0.734802939211757 0  0.7962591850367402 0.028636884306986743  0.8496993987975952 0.08591065292096245  L 4 3.4621993127147768  L 7.150300601202405 0.08591065292096245  C 7.20374081496326 0.028636884306986743  7.2651970607882435 0  7.3346693386773545 0  C 7.404141616566467 0  7.4655978623914505 0.028636884306986743  7.519038076152305 0.08591065292096245  L 7.919839679358717 0.515463917525773  Z " fill-rule="nonzero" fill="#2e2e2e" stroke="none" transform="matrix(1 0 0 1 46 18 )" />
  </g>
</svg>