<?xml version="1.0" encoding="utf-8"?>
<svg version="1.1" xmlns:xlink="http://www.w3.org/1999/xlink" width="20px" height="20px" xmlns="http://www.w3.org/2000/svg">
  <g transform="matrix(1 0 0 1 -5 -5 )">
    <path d="M 10 19.107142857142858  C 10.12820512820513 19.107142857142858  10.192307692307693 19.047619047619047  10.192307692307692 18.928571428571427  C 10.192307692307693 18.80952380952381  10.12820512820513 18.75  10 18.75  C 9.527243589743591 18.75  9.12059294871795 18.59188988095238  8.780048076923077 18.275669642857142  C 8.439503205128206 17.959449404761905  8.269230769230768 17.581845238095237  8.269230769230768 17.142857142857146  C 8.269230769230768 17.023809523809522  8.205128205128206 16.964285714285715  8.076923076923077 16.964285714285715  C 7.948717948717949 16.964285714285715  7.884615384615384 17.023809523809522  7.884615384615384 17.142857142857146  C 7.884615384615384 17.686011904761905  8.090945512820513 18.149181547619047  8.503605769230768 18.532366071428573  C 8.916266025641026 18.915550595238095  9.415064102564104 19.107142857142858  10 19.107142857142858  Z M 18.90625 14.732142857142856  C 19.234775641025642 15.074404761904763  19.599358974358974 15.401785714285714  20 15.714285714285714  C 20.000000000000004 16.101190476190478  19.847756410256412 16.436011904761905  19.54326923076923 16.71875  C 19.23878205128205 17.001488095238095  18.87820512820513 17.142857142857146  18.461538461538463 17.142857142857146  L 13.076923076923077 17.142857142857146  C 13.076923076923077 17.93154761904762  12.776442307692308 18.604910714285715  12.175480769230768 19.162946428571427  C 11.574519230769232 19.720982142857142  10.849358974358976 20  10 20  C 9.150641025641026 20  8.425480769230768 19.720982142857142  7.824519230769232 19.162946428571427  C 7.2235576923076925 18.604910714285715  6.923076923076923 17.93154761904762  6.923076923076923 17.142857142857146  L 1.5384615384615385 17.142857142857146  C 1.121794871794872 17.142857142857146  0.7612179487179488 17.001488095238095  0.4567307692307692 16.71875  C 0.15224358974358979 16.436011904761905  0 16.101190476190478  0 15.714285714285714  C 0.40064102564102577 15.401785714285714  0.7652243589743591 15.074404761904763  1.09375 14.732142857142856  C 1.4222756410256412 14.38988095238095  1.762820512820513 13.9453125  2.1153846153846154 13.3984375  C 2.4679487179487185 12.8515625  2.7664262820512824 12.261904761904761  3.010817307692308 11.629464285714286  C 3.255208333333334 10.99702380952381  3.4555288461538463 10.230654761904763  3.6117788461538463 9.330357142857142  C 3.7680288461538463 8.430059523809524  3.8461538461538463 7.462797619047617  3.8461538461538463 6.428571428571428  C 3.8461538461538463 5.297619047619047  4.314903846153847 4.2466517857142865  5.252403846153846 3.275669642857142  C 6.189903846153846 2.3046875  7.419871794871796 1.7150297619047605  8.942307692307693 1.506696428571428  C 8.87820512820513 1.3653273809523792  8.846153846153847 1.2202380952380953  8.846153846153847 1.071428571428572  C 8.846153846153847 0.7738095238095233  8.958333333333334 0.5208333333333326  9.182692307692307 0.3125  C 9.407051282051283 0.1041666666666674  9.679487179487179 0  10 0  C 10.320512820512821 0  10.59294871794872 0.1041666666666674  10.817307692307692 0.3125  C 11.041666666666668 0.5208333333333326  11.153846153846153 0.7738095238095233  11.153846153846153 1.071428571428572  C 11.153846153846153 1.2202380952380953  11.121794871794872 1.3653273809523792  11.057692307692308 1.506696428571428  C 12.580128205128208 1.7150297619047605  13.810096153846153 2.3046875  14.747596153846153 3.275669642857142  C 15.685096153846153 4.2466517857142865  16.153846153846153 5.297619047619047  16.153846153846153 6.428571428571428  C 16.153846153846153 7.462797619047617  16.231971153846153 8.430059523809524  16.388221153846153 9.330357142857142  C 16.544471153846153 10.230654761904763  16.744791666666668 10.99702380952381  16.989182692307693 11.629464285714286  C 17.23357371794872 12.261904761904761  17.53205128205128 12.8515625  17.884615384615387 13.3984375  C 18.23717948717949 13.9453125  18.577724358974365 14.38988095238095  18.90625 14.732142857142856  Z " fill-rule="nonzero" fill="#2e2e2e" stroke="none" transform="matrix(1 0 0 1 5 5 )" />
  </g>
</svg>