<svg xmlns="http://www.w3.org/2000/svg" viewBox="0 0 498.33 267.04"><defs><style>.cls-1,.cls-2,.cls-4,.cls-8{fill:none;}.cls-1,.cls-2,.cls-4{stroke:#2e2e2e;stroke-linejoin:round;}.cls-1,.cls-2{stroke-width:2.09px;}.cls-2{stroke-linecap:round;}.cls-3{fill:#262262;}.cls-4{stroke-width:1.97px;}.cls-5{fill:#2e2e2e;}.cls-6{fill:#fcd2a7;}.cls-7{fill:#ddd;}.cls-8{stroke:#262262;stroke-miterlimit:10;stroke-width:3px;}</style></defs><g id="Layer_2" data-name="Layer 2"><g id="Layer_1-2" data-name="Layer 1"><rect class="cls-1" x="311.75" y="31.1" width="58.29" height="62.98" rx="12" transform="translate(11.4 -44.92) rotate(7.67)"/><path class="cls-2" d="M375.37,43.76a8.92,8.92,0,0,1,2.92,7.85l-6,44.73a8.94,8.94,0,0,1-10,7.65L322.15,98.6a8.94,8.94,0,0,1-7-5.3"/><polyline class="cls-3" points="319.08 70.34 331.94 61.38 337.77 66.63 348.32 59.34 359.66 75.8"/><circle class="cls-4" cx="337.63" cy="56.18" r="3.01"/><line class="cls-4" x1="317.88" y1="79.2" x2="334.23" y2="81.4"/><rect class="cls-4" x="320.72" y="39.55" width="41.7" height="34.32" rx="2.29" transform="translate(10.62 -45.07) rotate(7.67)"/><rect class="cls-1" x="296.79" y="155.22" width="58.29" height="62.98" rx="12" transform="translate(-16.71 32.79) rotate(-5.62)"/><path class="cls-2" d="M355.17,160.45a8.93,8.93,0,0,1,4.64,7l4.42,44.93a9,9,0,0,1-8,9.75l-40.26,4a9,9,0,0,1-8-3.55"/><polyline class="cls-3" points="306.49 199.26 316.95 187.59 323.82 191.35 332.42 181.83 347.24 195.25"/><circle class="cls-4" cx="321.29" cy="181.21" r="3.01"/><line class="cls-4" x1="307.36" y1="208.16" x2="323.78" y2="206.54"/><rect class="cls-4" x="304.39" y="163.67" width="41.7" height="34.32" rx="2.29" transform="translate(-16.14 32.7) rotate(-5.62)"/><rect class="cls-1" x="226.56" y="83.99" width="58.29" height="62.98" rx="12" transform="translate(-22.85 81.87) rotate(-17.42)"/><path class="cls-2" d="M279,83.8a9,9,0,0,1,6,5.88l13.52,43.06a8.94,8.94,0,0,1-5.84,11.18L254,156a9,9,0,0,1-8.57-1.83"/><polyline class="cls-3" points="239.24 131.75 247.09 118.19 254.59 120.46 261.06 109.38 278.31 119.49"/><circle class="cls-4" cx="250.03" cy="111.06" r="3.01"/><line class="cls-4" x1="241.92" y1="140.28" x2="257.65" y2="135.34"/><rect class="cls-4" x="232.98" y="92.71" width="41.7" height="34.32" rx="2.29" transform="translate(-21.25 81.05) rotate(-17.42)"/><path class="cls-5" d="M0,62.91c.92,33.6,35,59.91,76.14,58.78a91.38,91.38,0,0,0,9.89-.81,373,373,0,0,1,40.33-3.42l2.69-.08h0a4.13,4.13,0,0,1,2.64.8L239,198.89l9.7-12.88-108-81.24h0a64,64,0,0,1,4.57-25.58A50.88,50.88,0,0,0,149,58.81C148,25.22,114-1.1,72.82,0S-.91,29.31,0,62.91Zm9-.25C8.2,33.12,36.86,8.38,73,7.38s66.13,22.14,67,51.68a43.81,43.81,0,0,1-1.32,12c-5.8,23.31-30.13,41.42-60.08,43.19q-1.3.09-2.61.12C39.81,115.34,9.83,92.2,9,62.66Z"/><path class="cls-6" d="M176.1,115l1,11s-13,9-21,0V115a6.89,6.89,0,0,1-4-5c-1-4,0-16,3-17,2.71-.9,13.65-3.45,20.88,3.52a7.52,7.52,0,0,1,2.31,5.67A69.31,69.31,0,0,1,176.1,115Z"/><path class="cls-5" d="M178.6,111.52c-.4.4-1.49,2.34-3,3-4.54,2-13,4-19,1,0-1,0-3,.6-4,.49-.8,1.4-2,1.4-2,2.57,0,4-2.57,3.77-5.19a1.91,1.91,0,0,0-1.68-1.72,5.13,5.13,0,0,0-2.59.41l-1-7s-3,0-4-4,12-8,22-1S181.6,108.52,178.6,111.52Z"/><path class="cls-6" d="M73.1,125a18.93,18.93,0,0,1-4-6c-1-1-10,0-10,0,0,1,0,6,9,12S73.1,125,73.1,125Z"/><polygon class="cls-7" points="221.52 267.04 190.09 267.04 175.1 232.02 170.43 260.04 139.1 248.47 139.1 202.02 201.1 208.02 221.52 267.04"/><path class="cls-3" d="M178.1,122s-5,8-24,3a96,96,0,0,0-22,3l-26,13c-3,0-33-16-33-16-2,0-6,1-5,6,3,3,28,22,28,22,2,1,41-1,41-1,0,1-3,56-3,56,1,2,17,14,96-1-5-6-31-43-34-59,0,0,16,14,24,13s7-8,2-13S199.1,122,178.1,122Z"/><path class="cls-3" d="M498.32,120a56.52,56.52,0,0,1-55.68,57.59c0-.39-.28-10.29-.28-11.41s2.28-.57,2.86,0c1.71.57,6.28,2.29,6.28-3.43s-5.71-4-5.71-4-2.29,1.71-2.86,1.14V148.47a12.45,12.45,0,0,1-7-.42,1.36,1.36,0,0,1-.6-2.12,8.73,8.73,0,0,1,.79-.89c3.42-2.29,2.28-4-1.14-6.28a3.59,3.59,0,0,0-5.72,2.28v4.13a.24.24,0,0,1-.37.21l-5.91-3.77s-6.28,6.29-6.85,7.43-.57,1.14,1.14,2.28c3.43,1.14,5.71,3.43,1.71,6.86s-5.71-1.15-6.28-2.86c-.33-1-.86-1.22-1.35-1.23a1.94,1.94,0,0,0-1.47.66l-6.92,7.36A56.54,56.54,0,1,1,498.32,120Z"/><path class="cls-6" d="M411.26,214.19s11-10,9.85-17.9c-3.28-6.32-15.76-11.6-16.56-11.36s.52,5,1.86,5.53S411.4,192.56,411.26,214.19Z"/><path class="cls-3" d="M395,177s8.56,15.42,37.12,21.71c.48-3.35,1-8.71,1.1-10.36a1.28,1.28,0,0,1,.46-.88c.66-.53,1.75-1,3.58.38,2.28,1.72,5.14,1.72,5.71-2.28s-1.14-5.71-5.71-4.57c-1.71.57-2.05.74-1.71-1.71l1.14-9.14c-.53,0-5.5-1-7.12-2a.82.82,0,0,1-.34-.54c-.09-.49-.24-1,1.18-2,1.71-1.14,5.14-2.86.57-6.28s-6.28,1.14-6.28,2.28,0,4-1.72,2.29c-.57-.57-4.57-4-4.57-4l-8.56,6.85c0,1.14,2.91,3.17,3.42,3.43s3.43,2.28-1.14,5.14-5.71-.57-5.71-2.29,0-2.85-1.71-2.85S395,177,395,177Z"/><path class="cls-6" d="M388.67,214.19l6.78-6.3,12.27-19.52c1.39-1.28,4.38-2.35,3.31,2a94.63,94.63,0,0,1-3.31,10c0,1.06,4,2.12,4,2.12l-.45,11.64L400.5,225.63Z"/><polygon class="cls-7" points="401.92 224.21 375.28 255.89 344.25 255.89 390.28 212.57 401.92 224.21"/><polyline class="cls-8" points="58.76 32.38 43.81 32.38 43.81 46.01"/><polyline class="cls-8" points="43.81 73.08 43.81 86.43 58.76 86.43"/><polyline class="cls-8" points="88.93 86.43 104.15 86.43 104.15 73.08"/><polyline class="cls-8" points="104.15 46.01 104.15 32.38 88.93 32.38"/></g></g></svg>