<svg xmlns="http://www.w3.org/2000/svg" viewBox="0 0 540.77 325.54"><defs><style>.cls-1{fill:#1d1d4f;}.cls-2{fill:#ddd;}.cls-3{fill:#262262;}.cls-4{fill:#3a3670;}.cls-5{fill:#2e2e2e;}</style></defs><g id="Layer_2" data-name="Layer 2"><g id="box"><polygon class="cls-1" points="286.04 67.07 444.56 22.68 295.92 0 134.09 12.47 286.04 67.07"/><ellipse class="cls-2" cx="270.38" cy="252.01" rx="270.38" ry="73.53"/><polygon class="cls-3" points="135.46 31.67 143.63 210.13 217.92 312.26 210.57 38.51 135.46 31.67"/><polygon class="cls-4" points="217.28 312.26 425.96 253.28 442.98 35.41 209.92 38.51 217.28 312.26"/><polygon class="cls-5" points="209.92 38.51 226.98 152.94 436.19 122.29 444.56 22.68 209.92 38.51"/><polygon class="cls-5" points="134.09 12.47 138.86 120.19 179.75 145.28 209.92 39.36 134.09 12.47"/><polygon class="cls-4" points="209.92 38.51 232.64 141.15 471.11 108.98 444.56 22.68 209.92 38.51"/><polygon class="cls-4" points="97.32 86.77 134.09 12.47 209.92 38.51 174.69 133.49 97.32 86.77"/></g></g></svg>