<?xml version="1.0" encoding="utf-8"?>
<svg version="1.1" xmlns:xlink="http://www.w3.org/1999/xlink" width="15px" height="15px" xmlns="http://www.w3.org/2000/svg">
  <g transform="matrix(1 0 0 1 -21 -20 )">
    <path d="M 2.5346534653465347 13.732673267326733  L 3.5940594059405937 13.732673267326733  L 4.4950495049504955 12.83168316831683  L 2.168316831683168 10.504950495049505  L 1.2673267326732673 11.405940594059405  L 1.2673267326732673 12.465346534653465  L 2.5346534653465347 12.465346534653465  L 2.5346534653465347 13.732673267326733  Z M 8.702970297029703 4.712871287128713  C 8.74917491749175 4.666666666666667  8.772277227722773 4.61056105610561  8.772277227722773 4.544554455445545  C 8.772277227722773 4.399339933993399  8.6996699669967 4.326732673267326  8.554455445544553 4.326732673267326  C 8.48844884488449 4.326732673267326  8.432343234323433 4.349834983498349  8.386138613861386 4.396039603960396  L 3.01980198019802 9.762376237623764  C 2.9735973597359737 9.808580858085808  2.9504950495049505 9.864686468646862  2.9504950495049505 9.93069306930693  C 2.9504950495049505 10.075907590759073  3.0231023102310237 10.14851485148515  3.1683168316831685 10.14851485148515  C 3.234323432343235 10.14851485148515  3.290429042904291 10.125412541254125  3.3366336633663365 10.07920792079208  L 8.702970297029703 4.712871287128713  Z M 0 10.881188118811881  L 8.237623762376238 2.643564356435644  L 12.356435643564355 6.762376237623762  L 4.118811881188119 15  L 0 15  L 0 10.881188118811881  Z M 14.633663366336634 2.693069306930693  C 14.877887788778878 2.950495049504951  15 3.2508250825082508  15 3.5940594059405937  C 15 3.943894389438944  14.877887788778878 4.240924092409239  14.633663366336634 4.485148514851486  L 12.99009900990099 6.128712871287129  L 8.871287128712872 2.009900990099011  L 10.514851485148514 0.37623762376237546  C 10.752475247524751 0.12541254125412404  11.049504950495049 0  11.405940594059405 0  C 11.755775577557758 0  12.056105610561058 0.12541254125412404  12.306930693069308 0.37623762376237546  L 14.633663366336634 2.693069306930693  Z " fill-rule="nonzero" fill="#2e2e2e" stroke="none" transform="matrix(1 0 0 1 21 20 )" />
  </g>
</svg>