<?xml version="1.0" encoding="utf-8"?>
<svg version="1.1" xmlns:xlink="http://www.w3.org/1999/xlink" width="25px" height="25px" xmlns="http://www.w3.org/2000/svg">
  <g transform="matrix(1 0 0 1 -20 -20 )">
    <path d="M 6.666666666666667 8.928571428571427  C 6.666666666666667 10.221354166666666  7.018229166666666 11.411830357142858  7.721354166666666 12.5  C 6.315104166666667 12.546502976190476  5.164930555555556 13.14174107142857  4.270833333333333 14.285714285714285  L 2.5260416666666665 14.285714285714285  C 1.814236111111111 14.285714285714285  1.215277777777778 14.097377232142858  0.7291666666666666 13.720703125  C 0.24305555555555552 13.344029017857142  0 12.79296875  0 12.067522321428573  C 0 8.78441220238095  0.5381944444444443 7.142857142857142  1.6145833333333335 7.142857142857142  C 1.6666666666666667 7.142857142857142  1.85546875 7.240513392857142  2.180989583333333 7.435825892857142  C 2.506510416666667 7.631138392857142  2.9296875 7.828776041666666  3.4505208333333335 8.028738839285715  C 3.9713541666666665 8.228701636904761  4.487847222222222 8.328683035714285  5 8.328683035714285  C 5.581597222222222 8.328683035714285  6.158854166666667 8.22172619047619  6.731770833333334 8.0078125  C 6.688368055555556 8.35193452380952  6.666666666666667 8.658854166666666  6.666666666666667 8.928571428571427  Z M 21.62109375 19.942801339285715  C 21.651475694444446 20.412481398809522  21.666666666666668 20.893787202380953  21.666666666666668 21.38671875  C 21.666666666666668 22.502790178571427  21.34982638888889 23.384021577380953  20.716145833333332 24.030412946428573  C 20.082465277777782 24.67680431547619  19.24045138888889 25  18.190104166666668 25  L 6.809895833333333 25  C 5.759548611111112 25  4.917534722222223 24.67680431547619  4.283854166666667 24.030412946428573  C 3.650173611111111 23.384021577380953  3.3333333333333335 22.502790178571427  3.3333333333333335 21.38671875  C 3.3333333333333335 20.893787202380953  3.348524305555556 20.412481398809522  3.37890625 19.942801339285715  C 3.409288194444445 19.473121279761905  3.470052083333333 18.966238839285715  3.561197916666667 18.422154017857142  C 3.65234375 17.87806919642857  3.7673611111111116 17.373511904761905  3.90625 16.908482142857142  C 4.045138888888889 16.44345238095238  4.231770833333334 15.990048363095235  4.466145833333333 15.548270089285715  C 4.700520833333333 15.10649181547619  4.969618055555556 14.729817708333332  5.2734375 14.418247767857142  C 5.577256944444445 14.106677827380953  5.9483506944444455 13.857886904761903  6.386718750000001 13.671875  C 6.825086805555556 13.485863095238093  7.309027777777779 13.392857142857142  7.838541666666667 13.392857142857142  C 7.925347222222223 13.392857142857142  8.111979166666666 13.492838541666666  8.3984375 13.692801339285715  C 8.684895833333334 13.892764136904761  9.00173611111111 14.115978422619047  9.348958333333334 14.36244419642857  C 9.696180555555557 14.608909970238093  10.160590277777779 14.832124255952378  10.7421875 15.03208705357143  C 11.323784722222223 15.232049851190476  11.909722222222223 15.33203125  12.5 15.33203125  C 13.090277777777779 15.33203125  13.676215277777779 15.232049851190476  14.2578125 15.03208705357143  C 14.839409722222225 14.832124255952378  15.303819444444446 14.608909970238093  15.651041666666668 14.36244419642857  C 15.99826388888889 14.115978422619047  16.315104166666668 13.892764136904761  16.6015625 13.692801339285715  C 16.888020833333332 13.492838541666666  17.07465277777778 13.392857142857142  17.161458333333332 13.392857142857142  C 17.69097222222222 13.392857142857142  18.174913194444446 13.485863095238093  18.61328125 13.671875  C 19.051649305555557 13.857886904761903  19.422743055555554 14.106677827380953  19.7265625 14.418247767857142  C 20.030381944444446 14.729817708333332  20.299479166666668 15.10649181547619  20.533854166666668 15.548270089285715  C 20.768229166666664 15.990048363095235  20.954861111111114 16.44345238095238  21.09375 16.908482142857142  C 21.232638888888893 17.373511904761905  21.34765625 17.87806919642857  21.438802083333332 18.422154017857142  C 21.529947916666668 18.966238839285715  21.590711805555557 19.473121279761905  21.62109375 19.942801339285715  Z M 7.356770833333333 1.046316964285715  C 8.0078125 1.7438616071428577  8.333333333333332 2.585565476190474  8.333333333333332 3.5714285714285725  C 8.333333333333332 4.557291666666666  8.0078125 5.398995535714285  7.356770833333333 6.096540178571427  C 6.705729166666667 6.794084821428573  5.920138888888889 7.142857142857142  5 7.142857142857142  C 4.079861111111112 7.142857142857142  3.2942708333333335 6.794084821428573  2.6432291666666665 6.096540178571427  C 1.9921874999999998 5.398995535714285  1.6666666666666667 4.557291666666666  1.6666666666666667 3.5714285714285725  C 1.6666666666666667 2.585565476190474  1.9921874999999998 1.7438616071428577  2.6432291666666665 1.046316964285715  C 3.2942708333333335 0.3487723214285726  4.079861111111112 0  5 0  C 5.920138888888889 0  6.705729166666667 0.3487723214285726  7.356770833333333 1.046316964285715  Z M 16.03515625 5.140904017857142  C 17.01171875 6.187220982142858  17.5 7.449776785714285  17.5 8.928571428571427  C 17.5 10.407366071428573  17.01171875 11.669921875  16.03515625 12.716238839285715  C 15.058593749999998 13.76255580357143  13.880208333333332 14.285714285714285  12.5 14.285714285714285  C 11.11979166666667 14.285714285714285  9.941406250000002 13.76255580357143  8.96484375 12.716238839285715  C 7.98828125 11.669921875  7.5 10.407366071428573  7.5 8.928571428571427  C 7.5 7.449776785714285  7.98828125 6.187220982142858  8.96484375 5.140904017857142  C 9.941406250000002 4.094587053571427  11.11979166666667 3.5714285714285725  12.5 3.5714285714285725  C 13.880208333333332 3.5714285714285725  15.058593749999998 4.094587053571427  16.03515625 5.140904017857142  Z M 23.385416666666668 7.142857142857142  C 24.46180555555556 7.142857142857142  25.000000000000007 8.78441220238095  25 12.067522321428573  C 25.000000000000007 12.79296875  24.756944444444446 13.344029017857142  24.270833333333332 13.720703125  C 23.784722222222225 14.097377232142858  23.185763888888893 14.285714285714285  22.473958333333332 14.285714285714285  L 20.729166666666668 14.285714285714285  C 19.835069444444446 13.14174107142857  18.684895833333336 12.546502976190476  17.278645833333332 12.5  C 17.981770833333332 11.411830357142858  18.333333333333332 10.221354166666666  18.333333333333332 8.928571428571427  C 18.333333333333332 8.658854166666666  18.311631944444446 8.35193452380952  18.268229166666668 8.0078125  C 18.841145833333332 8.22172619047619  19.41840277777778 8.328683035714285  20 8.328683035714285  C 20.51215277777778 8.328683035714285  21.028645833333336 8.228701636904761  21.549479166666664 8.028738839285715  C 22.0703125 7.828776041666666  22.493489583333336 7.631138392857142  22.819010416666664 7.435825892857142  C 23.14453125 7.240513392857142  23.333333333333332 7.142857142857142  23.385416666666668 7.142857142857142  Z M 22.356770833333332 1.046316964285715  C 23.0078125 1.7438616071428577  23.333333333333332 2.585565476190474  23.333333333333332 3.5714285714285725  C 23.333333333333332 4.557291666666666  23.0078125 5.398995535714285  22.356770833333332 6.096540178571427  C 21.705729166666668 6.794084821428573  20.92013888888889 7.142857142857142  20 7.142857142857142  C 19.079861111111114 7.142857142857142  18.294270833333336 6.794084821428573  17.643229166666664 6.096540178571427  C 16.9921875 5.398995535714285  16.666666666666664 4.557291666666666  16.666666666666664 3.5714285714285725  C 16.666666666666664 2.585565476190474  16.9921875 1.7438616071428577  17.643229166666664 1.046316964285715  C 18.294270833333336 0.3487723214285726  19.079861111111114 0  20 0  C 20.92013888888889 0  21.705729166666668 0.3487723214285726  22.356770833333332 1.046316964285715  Z " fill-rule="nonzero" fill="#00a407" stroke="none" transform="matrix(1 0 0 1 20 20 )" />
  </g>
</svg>