<svg xmlns="http://www.w3.org/2000/svg" viewBox="0 0 174.17 75.44"><defs><style>.cls-1{fill:#262262;}.cls-2{fill:none;stroke:#262262;stroke-miterlimit:10;stroke-width:0.69px;}</style></defs><g id="Layer_2" data-name="Layer 2"><g id="Layer_1-2" data-name="Layer 1"><ellipse class="cls-1" cx="22.09" cy="23.25" rx="5.39" ry="5.45"/><ellipse class="cls-1" cx="53.81" cy="55.3" rx="5.39" ry="5.45"/><ellipse class="cls-1" cx="21.88" cy="55.25" rx="5.39" ry="5.45"/><ellipse class="cls-1" cx="53.6" cy="23.19" rx="5.39" ry="5.45"/><ellipse class="cls-1" cx="37.82" cy="39.14" rx="5.39" ry="5.45"/><ellipse class="cls-1" cx="5.39" cy="39.54" rx="5.39" ry="5.45"/><ellipse class="cls-1" cx="68" cy="39.22" rx="5.39" ry="5.45"/><ellipse class="cls-1" cx="37.15" cy="69.99" rx="5.39" ry="5.45"/><ellipse class="cls-1" cx="38.1" cy="5.45" rx="5.39" ry="5.45"/><polyline class="cls-2" points="21.88 55.25 22.09 23.25 38.51 6.43 53.6 23.19 53.81 55.3"/><line class="cls-2" x1="68.62" y1="39.54" x2="5.39" y2="39.54"/><path class="cls-1" d="M91.38,55.3V22.89h14.39q5.53,0,8.52,2.25a7.28,7.28,0,0,1,3,6.13,8,8,0,0,1-1.17,4.45A7.83,7.83,0,0,1,113,38.5a9.58,9.58,0,0,1-4.26,1l.82-1.39a11.46,11.46,0,0,1,4.86,1,7.87,7.87,0,0,1,3.34,2.85A8.22,8.22,0,0,1,119,46.55,7.57,7.57,0,0,1,115.87,53c-2.06,1.53-5.13,2.29-9.19,2.29ZM96,51.55H106.5a10.87,10.87,0,0,0,5.82-1.29,4.52,4.52,0,0,0,2-4.08,4.55,4.55,0,0,0-2-4.12,10.86,10.86,0,0,0-5.82-1.3h-11V37h9.8a9.66,9.66,0,0,0,5.41-1.29,4.39,4.39,0,0,0,1.92-3.89,4.37,4.37,0,0,0-1.92-3.89,9.66,9.66,0,0,0-5.41-1.3H96Z"/><path class="cls-1" d="M135.82,55.58A12.93,12.93,0,0,1,129.34,54a11.88,11.88,0,0,1-4.51-4.47A12.65,12.65,0,0,1,123.18,43a12.46,12.46,0,0,1,1.65-6.45,12,12,0,0,1,4.49-4.43,12.88,12.88,0,0,1,6.5-1.62,13.17,13.17,0,0,1,6.49,1.6,11.77,11.77,0,0,1,4.49,4.42A12.8,12.8,0,0,1,148.42,43a12.84,12.84,0,0,1-1.62,6.49A11.89,11.89,0,0,1,142.31,54,13,13,0,0,1,135.82,55.58Zm0-3.89A8.23,8.23,0,0,0,140,50.63a7.42,7.42,0,0,0,2.91-3A9.42,9.42,0,0,0,144,43a9.26,9.26,0,0,0-1.06-4.56,7.52,7.52,0,0,0-2.91-3,8.24,8.24,0,0,0-4.19-1.07,8.14,8.14,0,0,0-4.17,1.07,7.91,7.91,0,0,0-2.93,3,9.06,9.06,0,0,0-1.1,4.56,9.21,9.21,0,0,0,1.1,4.56,7.8,7.8,0,0,0,2.93,3A8.13,8.13,0,0,0,135.82,51.69Z"/><path class="cls-1" d="M150.16,55.3l10.45-13.7-.05,2.27-9.94-13.11h4.9l7.61,10.1h-1.88l7.61-10.1h4.81L163.59,44l0-2.36,10.54,13.7h-5l-8-10.74,1.79.28L155.07,55.3Z"/></g></g></svg>