<?xml version="1.0" encoding="utf-8"?>
<svg version="1.1" xmlns:xlink="http://www.w3.org/1999/xlink" width="25px" height="25px" xmlns="http://www.w3.org/2000/svg">
  <g transform="matrix(1 0 0 1 -20 -20 )">
    <path d="M 7.352941176470589 17.996651785714285  L 7.352941176470589 22.767857142857142  L 11.76470588235294 20.089285714285715  L 11.76470588235294 15.708705357142858  L 7.352941176470589 17.996651785714285  Z M 1.9761029411764706 14.02064732142857  L 6.61764705882353 16.434151785714285  L 11.259191176470589 14.02064732142857  L 6.61764705882353 11.607142857142858  L 1.9761029411764706 14.02064732142857  Z M 19.11764705882353 17.996651785714285  L 19.11764705882353 22.767857142857142  L 23.52941176470588 20.089285714285715  L 23.52941176470588 15.708705357142858  L 19.11764705882353 17.996651785714285  Z M 13.740808823529413 14.02064732142857  L 18.38235294117647 16.434151785714285  L 23.02389705882353 14.02064732142857  L 18.38235294117647 11.607142857142858  L 13.740808823529413 14.02064732142857  Z M 13.23529411764706 8.621651785714285  L 13.23529411764706 12.346540178571427  L 17.647058823529413 10.044642857142858  L 17.647058823529413 6.333705357142858  L 13.23529411764706 8.621651785714285  Z M 7.4333639705882355 4.422433035714285  L 12.5 7.059151785714285  L 17.566636029411764 4.422433035714285  L 12.5 1.785714285714285  L 7.4333639705882355 4.422433035714285  Z M 24.758731617647058 13.309151785714285  C 24.919577205882355 13.606770833333332  25 13.932291666666666  25 14.285714285714285  L 25 20.089285714285715  C 25 20.424107142857142  24.927236519607845 20.735677083333332  24.78170955882353 21.023995535714285  C 24.636182598039216 21.312313988095237  24.43704044117647 21.530877976190478  24.184283088235293 21.6796875  L 19.03722426470588 24.8046875  C 18.84574142156863 24.934895833333332  18.627450980392158 25  18.38235294117647 25  C 18.137254901960787 25  17.918964460784316 24.934895833333332  17.727481617647058 24.8046875  L 12.580422794117647 21.6796875  C 12.549785539215689 21.66108630952381  12.522977941176471 21.642485119047617  12.5 21.62388392857143  C 12.484681372549021 21.642485119047617  12.457873774509807 21.66108630952381  12.419577205882353 21.6796875  L 7.272518382352941 24.8046875  C 7.081035539215687 24.934895833333332  6.862745098039216 25  6.61764705882353 25  C 6.3725490196078445 25  6.1542585784313735 24.934895833333332  5.962775735294118 24.8046875  L 0.815716911764706 21.6796875  C 0.5629595588235294 21.530877976190478  0.3638174019607843 21.312313988095237  0.2182904411764706 21.023995535714285  C 0.07276348039215687 20.735677083333332  0 20.424107142857142  0 20.089285714285715  L 0 14.285714285714285  C 0 13.932291666666666  0.08233762254901959 13.606770833333332  0.24701286764705882 13.309151785714285  C 0.41168811274509803 13.011532738095239  0.6280637254901961 12.788318452380953  0.8961397058823529 12.63950892857143  L 5.88235294117647 10.044642857142858  L 5.88235294117647 4.464285714285715  C 5.88235294117647 4.110863095238093  5.964690563725491 3.785342261904762  6.12936580882353 3.4877232142857153  C 6.2940410539215685 3.1901041666666656  6.510416666666667 2.966889880952378  6.778492647058823 2.8180803571428577  L 11.925551470588236 0.13950892857142738  C 12.101715686274511 0.046502976190479495  12.293198529411764 0  12.5 0  C 12.706801470588236 0  12.898284313725492 0.046502976190479495  13.074448529411764 0.13950892857142738  L 18.221507352941178 2.8180803571428577  C 18.489583333333336 2.966889880952378  18.705958946078432 3.1901041666666656  18.87063419117647 3.4877232142857153  C 19.03530943627451 3.785342261904762  19.11764705882353 4.110863095238093  19.11764705882353 4.464285714285715  L 19.11764705882353 10.044642857142858  L 24.103860294117645 12.63950892857143  C 24.379595588235293 12.788318452380953  24.597886029411764 13.011532738095239  24.758731617647058 13.309151785714285  Z " fill-rule="nonzero" fill="#00a407" stroke="none" transform="matrix(1 0 0 1 20 20 )" />
  </g>
</svg>