<?xml version="1.0" encoding="utf-8"?>
<svg version="1.1" xmlns:xlink="http://www.w3.org/1999/xlink" width="20px" height="20px" xmlns="http://www.w3.org/2000/svg">
  <g transform="matrix(1 0 0 1 -20 -65 )">
    <path d="M 4.231770833333333 8.091517857142858  C 6.019965277777778 8.411458333333336  7.942708333333334 8.571428571428573  10 8.571428571428573  C 12.057291666666668 8.571428571428573  13.980034722222223 8.411458333333336  15.768229166666668 8.091517857142858  C 17.556423611111114 7.77157738095238  18.96701388888889 7.299107142857142  20 6.674107142857142  L 20 8.571428571428573  C 20 9.084821428571427  19.552951388888886 9.561011904761905  18.658854166666668 10  C 17.764756944444446 10.438988095238093  16.549479166666668 10.786830357142856  15.013020833333332 11.043526785714286  C 13.4765625 11.300223214285714  11.805555555555555 11.428571428571427  10 11.428571428571427  C 8.194444444444445 11.428571428571427  6.5234375 11.300223214285714  4.986979166666667 11.043526785714286  C 3.450520833333333 10.786830357142856  2.235243055555556 10.438988095238093  1.3411458333333335 10  C 0.44704861111111105 9.561011904761905  0 9.084821428571427  0 8.571428571428573  L 0 6.674107142857142  C 1.0329861111111112 7.299107142857142  2.4435763888888893 7.77157738095238  4.231770833333333 8.091517857142858  Z M 4.231770833333333 16.662946428571427  C 6.019965277777778 16.982886904761905  7.942708333333334 17.142857142857146  10 17.142857142857146  C 12.057291666666668 17.142857142857146  13.980034722222223 16.982886904761905  15.768229166666668 16.662946428571427  C 17.556423611111114 16.343005952380953  18.96701388888889 15.870535714285714  20 15.245535714285714  L 20 17.142857142857146  C 20 17.65625  19.552951388888886 18.132440476190478  18.658854166666668 18.571428571428573  C 17.764756944444446 19.010416666666664  16.549479166666668 19.358258928571427  15.013020833333332 19.614955357142858  C 13.4765625 19.871651785714285  11.805555555555555 20  10 20  C 8.194444444444445 20  6.5234375 19.871651785714285  4.986979166666667 19.614955357142858  C 3.450520833333333 19.358258928571427  2.235243055555556 19.010416666666664  1.3411458333333335 18.571428571428573  C 0.44704861111111105 18.132440476190478  0 17.65625  0 17.142857142857146  L 0 15.245535714285714  C 1.0329861111111112 15.870535714285714  2.4435763888888893 16.343005952380953  4.231770833333333 16.662946428571427  Z M 4.231770833333333 12.377232142857144  C 6.019965277777778 12.697172619047619  7.942708333333334 12.857142857142856  10 12.857142857142856  C 12.057291666666668 12.857142857142856  13.980034722222223 12.697172619047619  15.768229166666668 12.377232142857144  C 17.556423611111114 12.057291666666664  18.96701388888889 11.584821428571427  20 10.959821428571427  L 20 12.857142857142856  C 20 13.370535714285714  19.552951388888886 13.846726190476188  18.658854166666668 14.285714285714286  C 17.764756944444446 14.724702380952381  16.549479166666668 15.072544642857144  15.013020833333332 15.329241071428573  C 13.4765625 15.5859375  11.805555555555555 15.714285714285714  10 15.714285714285714  C 8.194444444444445 15.714285714285714  6.5234375 15.5859375  4.986979166666667 15.329241071428573  C 3.450520833333333 15.072544642857144  2.235243055555556 14.724702380952381  1.3411458333333335 14.285714285714286  C 0.44704861111111105 13.846726190476188  0 13.370535714285714  0 12.857142857142856  L 0 10.959821428571427  C 1.0329861111111112 11.584821428571427  2.4435763888888893 12.057291666666664  4.231770833333333 12.377232142857144  Z M 4.986979166666667 0.3850446428571419  C 6.5234375 0.12834821428571397  8.194444444444445 0  10 0  C 11.805555555555555 0  13.4765625 0.12834821428571397  15.013020833333332 0.3850446428571419  C 16.549479166666668 0.6417410714285721  17.764756944444446 0.9895833333333326  18.658854166666668 1.428571428571428  C 19.552951388888886 1.8675595238095233  20 2.34375  20 2.857142857142858  L 20 4.2857142857142865  C 20 4.799107142857142  19.552951388888886 5.275297619047617  18.658854166666668 5.7142857142857135  C 17.764756944444446 6.153273809523809  16.549479166666668 6.501116071428572  15.013020833333332 6.7578125  C 13.4765625 7.014508928571428  11.805555555555555 7.142857142857142  10 7.142857142857142  C 8.194444444444445 7.142857142857142  6.5234375 7.014508928571428  4.986979166666667 6.7578125  C 3.450520833333333 6.501116071428572  2.235243055555556 6.153273809523809  1.3411458333333335 5.7142857142857135  C 0.44704861111111105 5.275297619047617  0 4.799107142857142  0 4.2857142857142865  L 0 2.857142857142858  C 0 2.34375  0.44704861111111105 1.8675595238095233  1.3411458333333335 1.428571428571428  C 2.235243055555556 0.9895833333333326  3.450520833333333 0.6417410714285721  4.986979166666667 0.3850446428571419  Z " fill-rule="nonzero" fill="#262262" stroke="none" transform="matrix(1 0 0 1 20 65 )" />
  </g>
</svg>