<?xml version="1.0" encoding="utf-8"?>
<svg version="1.1" xmlns:xlink="http://www.w3.org/1999/xlink" width="20px" height="20px" xmlns="http://www.w3.org/2000/svg">
  <g transform="matrix(1 0 0 1 -20 -105 )">
    <path d="M 6.775 8.4375  C 6.746875 10.6796875  8.203125 12.5  9.996875 12.5  C 11.790937499999998 12.5  13.21875 10.68125  13.21875 8.4375  C 13.21875 6.19375  11.764375000000001 4.375  9.996875 4.375  C 8.2028125 4.375  6.775 6.19375  6.775 8.4375  Z M 16 18.95703125  C 16 16.08203125  14.0125 13.75  11.559375 13.75  L 8.440625 13.75  C 5.9875 13.75  4 16.08203125  4 18.95703125  C 4 19.53515625  4.396875 20  4.8875 20  L 15.1125 20  C 15.603125 20  16 19.53515625  16 18.95703125  Z M 13.5 3.125  C 13.5 4.850781250000001  14.61875 6.25  16 6.25  C 17.380625 6.25  18.5 4.850781250000001  18.5 3.125  C 18.5 1.3992187499999997  17.38125 0  16 0  C 14.619374999999998 0  13.5 1.39921875  13.5 3.125  Z M 6.785 11.875  C 6.146875 10.9453125  5.746875 9.75390625  5.746875 8.4375  C 5.746875 8.224648437499999  5.777575000000001 8.022265625  5.7971562500000005 7.816015625  C 5.456250000000001 7.58203125  5.081249999999999 7.5  4.684375 7.5  L 2.7525 7.5  C 1.2325 7.5  0 9.1328125  0 11.14453125  C 0 11.546875  0.24646875 11.875  0.550625 11.875  L 6.785 11.875  Z M 1.5 3.125  C 1.5 4.850781250000001  2.619375 6.25  4 6.25  C 5.380625 6.25  6.5 4.850781250000001  6.5 3.125  C 6.5 1.3992187499999997  5.38125 0  4 0  C 2.619375 0  1.5 1.39921875  1.5 3.125  Z M 20 11.14453125  C 20 9.1328125  18.76875 7.5  17.246875 7.5  L 15.314374999999998 7.5  C 14.914374999999998 7.5  14.536874999999998 7.6186328125000005  14.193749999999998 7.821875  C 14.212500000000002 8.02734375  14.243749999999999 8.2265625  14.243749999999999 8.4375  C 14.243749999999999 9.754296875  13.844375000000003 10.945703125  13.2075 11.875  L 19.448124999999997 11.875  C 19.753125 11.875  20 11.546875  20 11.14453125  Z " fill-rule="nonzero" fill="#262262" stroke="none" transform="matrix(1 0 0 1 20 105 )" />
  </g>
</svg>