<?xml version="1.0" encoding="utf-8"?>
<svg version="1.1" xmlns:xlink="http://www.w3.org/1999/xlink" width="20px" height="20px" xmlns="http://www.w3.org/2000/svg">
  <g transform="matrix(1 0 0 1 -5 -5 )">
    <path d="M 16.473214285714285 10.729166666666664  C 17.87202380952381 9.097222222222221  18.571428571428573 7.552083333333332  18.571428571428573 6.09375  C 18.571428571428573 5.390625  18.491443452380953 4.769965277777777  18.331473214285715 4.231770833333332  C 18.171502976190478 3.693576388888886  17.966889880952383 3.266059027777777  17.717633928571427 2.94921875  C 17.468377976190478 2.632378472222221  17.165178571428573 2.374131944444444  16.808035714285715 2.1744791666666674  C 16.450892857142858 1.9748263888888862  16.101190476190478 1.8402777777777768  15.758928571428573 1.7708333333333326  C 15.416666666666668 1.7013888888888862  15.052083333333336 1.6666666666666674  14.665178571428573 1.6666666666666674  C 14.278273809523812 1.6666666666666674  13.861607142857142 1.77734375  13.415178571428573 1.9986979166666674  C 12.96875 2.2200520833333326  12.55766369047619 2.4978298611111094  12.181919642857142 2.83203125  C 11.806175595238098 3.166232638888886  11.484375 3.478732638888886  11.216517857142858 3.76953125  C 10.948660714285715 4.060329861111109  10.72544642857143 4.327256944444445  10.546875 4.5703125  C 10.41294642857143 4.761284722222221  10.230654761904763 4.856770833333332  10 4.856770833333332  C 9.769345238095239 4.856770833333332  9.587053571428571 4.761284722222221  9.453125 4.5703125  C 9.274553571428571 4.327256944444445  9.051339285714286 4.060329861111109  8.783482142857142 3.76953125  C 8.515625 3.478732638888886  8.193824404761905 3.166232638888886  7.818080357142857 2.83203125  C 7.44233630952381 2.4978298611111094  7.03125 2.2200520833333326  6.584821428571429 1.9986979166666674  C 6.138392857142857 1.77734375  5.721726190476192 1.6666666666666674  5.334821428571429 1.6666666666666674  C 4.947916666666667 1.6666666666666674  4.583333333333334 1.7013888888888862  4.241071428571429 1.7708333333333326  C 3.8988095238095246 1.8402777777777768  3.5491071428571432 1.9748263888888862  3.1919642857142856 2.1744791666666674  C 2.8348214285714284 2.374131944444444  2.5316220238095237 2.632378472222221  2.2823660714285716 2.94921875  C 2.033110119047619 3.266059027777777  1.8284970238095237 3.693576388888886  1.6685267857142858 4.231770833333332  C 1.508556547619048 4.769965277777777  1.4285714285714284 5.390625  1.4285714285714284 6.09375  C 1.4285714285714284 7.552083333333332  2.1242559523809526 9.092881944444445  3.515625 10.716145833333336  L 10 18.0078125  L 16.473214285714285 10.729166666666664  Z M 18.582589285714285 1.6145833333333326  C 19.527529761904763 2.690972222222221  20 4.184027777777777  20 6.09375  C 20 8.012152777777777  19.148065476190478 9.965277777777777  17.444196428571427 11.953125  L 10.491071428571427 19.765625  C 10.357142857142858 19.921875  10.193452380952381 20  10 20  C 9.80654761904762 20  9.642857142857144 19.921875  9.508928571428571 19.765625  L 2.5446428571428568 11.927083333333336  C 2.4702380952380953 11.85763888888889  2.367931547619048 11.744791666666664  2.2377232142857144 11.588541666666664  C 2.107514880952381 11.432291666666664  1.901041666666667 11.148003472222223  1.6183035714285716 10.735677083333336  C 1.3355654761904763 10.323350694444443  1.0825892857142858 9.900173611111109  0.859375 9.466145833333332  C 0.6361607142857142 9.032118055555555  0.4371279761904762 8.506944444444445  0.2622767857142857 7.890625  C 0.08742559523809523 7.274305555555554  0 6.675347222222221  0 6.09375  C 0 4.184027777777777  0.472470238095238 2.690972222222221  1.4174107142857142 1.6145833333333326  C 2.3623511904761907 0.5381944444444442  3.668154761904762 0  5.334821428571429 0  C 5.7961309523809526 0  6.266741071428571 0.09331597222222099  6.7466517857142865 0.2799479166666674  C 7.2265625 0.4665798611111094  7.672991071428571 0.718315972222221  8.0859375 1.03515625  C 8.49888392857143 1.3519965277777768  8.854166666666668 1.6493055555555536  9.151785714285714 1.9270833333333326  C 9.449404761904763 2.2048611111111094  9.732142857142858 2.5  10 2.8125  C 10.267857142857142 2.5  10.550595238095239 2.2048611111111094  10.848214285714286 1.9270833333333326  C 11.145833333333336 1.6493055555555536  11.501116071428573 1.3519965277777768  11.9140625 1.03515625  C 12.327008928571427 0.718315972222221  12.7734375 0.4665798611111094  13.253348214285714 0.2799479166666674  C 13.733258928571427 0.09331597222222099  14.20386904761905 0  14.665178571428573 0  C 16.33184523809524 0  17.63764880952381 0.5381944444444442  18.582589285714285 1.6145833333333326  Z " fill-rule="nonzero" fill="#2e2e2e" stroke="none" transform="matrix(1 0 0 1 5 5 )" />
  </g>
</svg>