<?xml version="1.0" encoding="utf-8"?>
<svg version="1.1" xmlns:xlink="http://www.w3.org/1999/xlink" width="21px" height="21px" xmlns="http://www.w3.org/2000/svg">
  <g transform="matrix(1 0 0 1 -5 -5 )">
    <path d="M 6.421875000000001 0.8320312499999997  C 7.718750000000001 0.2773437499999999  9.078125 0  10.5 0  C 11.921875 0  13.281250000000002 0.2773437499999999  14.578125 0.8320312499999997  C 15.875000000000002 1.3867187499999996  16.9921875 2.1328125  17.9296875 3.070312499999999  C 18.867187500000004 4.0078125  19.613281250000004 5.124999999999998  20.16796875 6.421874999999999  C 20.722656250000004 7.718749999999998  21 9.078125  21 10.5  C 21 11.9140625  20.724609375 13.26953125  20.173828125 14.566406249999998  C 19.623046875 15.863281250000002  18.87890625 16.98046875  17.94140625 17.91796875  C 17.00390625 18.85546875  15.886718750000002 19.603515624999996  14.58984375 20.162109375  C 13.292968750000002 20.720703125  11.929687499999998 21  10.5 21  C 9.0703125 21  7.707031250000001 20.72265625  6.41015625 20.16796875  C 5.11328125 19.61328125  3.998046875 18.865234374999996  3.0644531249999996 17.923828125  C 2.130859375 16.982421875  1.38671875 15.865234375  0.83203125 14.572265625  C 0.27734374999999994 13.279296874999998  0 11.921874999999998  0 10.5  C 0 9.078125  0.27734374999999994 7.718749999999998  0.83203125 6.421874999999999  C 1.38671875 5.124999999999998  2.1328125 4.0078125  3.0703125 3.070312499999999  C 4.0078125 2.1328125  5.125 1.3867187499999996  6.421875000000001 0.8320312499999997  Z M 14.16796875 12  C 16.04296875 12  17.23828125 13.27734375  17.75390625 15.83203125  C 18.917968750000004 14.23046875  19.5 12.453124999999998  19.5 10.5  C 19.5 9.28125  19.26171875 8.117187499999998  18.78515625 7.007812499999999  C 18.30859375 5.898437499999999  17.667968750000004 4.941406249999998  16.86328125 4.136718749999999  C 16.058593750000004 3.33203125  15.1015625 2.691406249999999  13.992187500000002 2.21484375  C 12.882812500000002 1.7382812499999987  11.71875 1.4999999999999993  10.5 1.4999999999999993  C 9.28125 1.4999999999999993  8.1171875 1.7382812499999987  7.0078125 2.21484375  C 5.898437500000001 2.691406249999999  4.941406250000001 3.33203125  4.13671875 4.136718749999999  C 3.332031250000001 4.941406249999998  2.69140625 5.898437499999999  2.21484375 7.007812499999999  C 1.7382812500000002 8.117187499999998  1.5 9.28125  1.5 10.5  C 1.5 12.453124999999998  2.08203125 14.23046875  3.24609375 15.83203125  C 3.7617187499999996 13.27734375  4.95703125 12  6.832031250000001 12  C 7.855468750000001 13  9.078125 13.499999999999998  10.5 13.499999999999998  C 11.921875 13.499999999999998  13.14453125 13  14.16796875 12  Z M 13.681640625 11.431640625  C 14.560546875 10.552734375  15 9.4921875  15 8.250000000000002  C 15 7.007812499999999  14.560546875 5.947265625  13.681640625 5.068359374999999  C 12.802734375000002 4.189453125000001  11.7421875 3.750000000000001  10.5 3.750000000000001  C 9.2578125 3.750000000000001  8.197265625 4.189453125000001  7.318359374999999 5.068359374999999  C 6.439453125 5.947265625  6 7.007812499999999  6 8.250000000000002  C 6 9.4921875  6.439453125 10.552734375  7.318359374999999 11.431640625  C 8.197265625 12.310546874999998  9.2578125 12.750000000000002  10.5 12.750000000000002  C 11.7421875 12.750000000000002  12.802734375000002 12.310546874999998  13.681640625 11.431640625  Z " fill-rule="nonzero" fill="#2e2e2e" stroke="none" transform="matrix(1 0 0 1 5 5 )" />
  </g>
</svg>