<?xml version="1.0" encoding="utf-8"?>
<svg version="1.1" xmlns:xlink="http://www.w3.org/1999/xlink" width="25px" height="25px" xmlns="http://www.w3.org/2000/svg">
  <g transform="matrix(1 0 0 1 -20 -20 )">
    <path d="M 11.960519862677783 10.6689453125  C 11.040951446787641 11.8896484375  9.931338891613537 12.5  8.631682197155468 12.5  C 7.332025502697401 12.5  6.222412947523296 11.8896484375  5.302844531633154 10.6689453125  C 4.383276115743011 9.4482421875  3.92349190779794 7.975260416666666  3.92349190779794 6.25  C 3.92349190779794 4.524739583333334  4.383276115743011 3.0517578125  5.302844531633154 1.8310546875  C 6.222412947523296 0.6103515625  7.332025502697401 0  8.631682197155468 0  C 9.931338891613537 0  11.040951446787641 0.6103515625  11.960519862677783 1.8310546875  C 12.880088278567925 3.0517578125  13.339872486512997 4.524739583333334  13.339872486512997 6.25  C 13.339872486512997 7.975260416666666  12.880088278567925 9.4482421875  11.960519862677783 10.6689453125  Z M 24.889651790093183 13.655598958333332  L 21.83668464933791 17.708333333333332  L 24.889651790093183 21.761067708333336  C 24.963217263364395 21.858723958333336  25 21.983506944444446  25 22.135416666666664  C 25 22.276475694444446  24.963217263364395 22.395833333333336  24.889651790093183 22.493489583333336  L 23.222167729279057 24.70703125  C 23.148602256007848 24.8046875  23.058688899787477 24.853515625  22.95242766061795 24.853515625  C 22.837992479973845 24.853515625  22.743992153016183 24.8046875  22.670426679744974 24.70703125  L 19.6174595389897 20.654296875  L 16.564492398234428 24.70703125  C 16.49092692496322 24.8046875  16.39692659800556 24.853515625  16.282491417361452 24.853515625  C 16.176230178191926 24.853515625  16.086316821971554 24.8046875  16.012751348700345 24.70703125  L 14.345267287886218 22.493489583333336  C 14.271701814615007 22.395833333333336  14.234919077979402 22.276475694444446  14.234919077979402 22.135416666666664  C 14.234919077979402 21.983506944444446  14.271701814615007 21.858723958333336  14.345267287886218 21.761067708333336  L 17.39823442864149 17.708333333333332  L 14.345267287886218 13.655598958333332  C 14.271701814615007 13.557942708333332  14.234919077979402 13.433159722222221  14.234919077979402 13.28125  C 14.234919077979402 13.140190972222221  14.271701814615007 13.020833333333332  14.345267287886218 12.923177083333332  L 16.012751348700345 10.709635416666666  C 16.086316821971554 10.611979166666666  16.176230178191926 10.563151041666666  16.282491417361452 10.563151041666666  C 16.39692659800556 10.563151041666666  16.49092692496322 10.611979166666666  16.564492398234428 10.709635416666666  L 19.6174595389897 14.762369791666668  L 22.670426679744974 10.709635416666666  C 22.743992153016183 10.611979166666666  22.837992479973845 10.563151041666666  22.95242766061795 10.563151041666666  C 23.058688899787477 10.563151041666666  23.148602256007848 10.611979166666666  23.222167729279057 10.709635416666666  L 24.889651790093183 12.923177083333332  C 24.963217263364395 13.020833333333332  25 13.140190972222221  25 13.28125  C 25 13.433159722222221  24.963217263364395 13.557942708333332  24.889651790093183 13.655598958333332  Z M 13.511525257479157 14.762369791666668  L 15.730750367827367 17.708333333333332  L 13.511525257479157 20.654296875  C 13.209089422919734 21.055772569444446  13.057871505640021 21.549479166666664  13.057871505640021 22.135416666666664  C 13.057871505640021 22.71050347222222  13.209089422919734 23.19878472222222  13.511525257479157 23.600260416666664  L 14.529180971064248 24.951171875  C 14.357528200098088 24.983723958333336  14.177701487657352 25  13.989700833742031 25  L 3.273663560568906 25  C 2.2846166421448424 25  1.4917443191106752 24.625651041666664  0.8950465914664051 23.876953125  C 0.298348863822135 23.128255208333336  0 22.097439236111114  0 20.784505208333336  C 0 20.20941840277778  0.014304397580513321 19.64789496527778  0.04291319274153997 19.099934895833336  C 0.07152198790256663 18.55197482638889  0.1287395782246199 17.960611979166668  0.21456596370769987 17.325846354166668  C 0.3003923491907798 16.691080729166668  0.40869707372895214 16.102430555555554  0.5394801373222168 15.559895833333332  C 0.6702632009154815 15.01736111111111  0.8460029426189308 14.488389756944443  1.066699362432565 13.972981770833332  C 1.2873957822461992 13.457573784722221  1.5407879679581495 13.018120659722221  1.8268759195684159 12.654622395833332  C 2.1129638711786822 12.291124131944445  2.4623998692169367 12.000868055555555  2.875183913683178 11.783854166666666  C 3.2879679581494203 11.566840277777777  3.7436651953572015 11.458333333333334  4.242275625306522 11.458333333333334  C 4.397580513323525 11.458333333333334  4.556972372077816 11.55056423611111  4.720451201569397 11.735026041666666  C 5.97923818865457 13.05881076388889  7.282981853849926 13.720703125  8.631682197155468 13.720703125  C 9.980382540461012 13.720703125  11.284126205656369 13.05881076388889  12.542913192741539 11.735026041666666  C 12.706392022233123 11.55056423611111  12.865783880987413 11.458333333333334  13.021088769004413 11.458333333333334  C 13.249959130292627 11.458333333333334  13.482916462318132 11.490885416666666  13.719960765080922 11.555989583333334  C 13.491090403792711 11.848958333333334  13.323524603563838 12.120225694444445  13.217263364394311 12.369791666666666  C 13.111002125224786 12.61935763888889  13.057871505640021 12.923177083333332  13.057871505640021 13.28125  C 13.057871505640021 13.8671875  13.209089422919734 14.360894097222221  13.511525257479157 14.762369791666668  Z " fill-rule="nonzero" fill="#e60000" stroke="none" transform="matrix(1 0 0 1 20 20 )" />
  </g>
</svg>