<?xml version="1.0" encoding="utf-8"?>
<svg version="1.1" xmlns:xlink="http://www.w3.org/1999/xlink" width="25px" height="25px" xmlns="http://www.w3.org/2000/svg">
  <g transform="matrix(1 0 0 1 -20 -20 )">
    <path d="M 8.931107954545455 20.686848958333336  C 9.037642045454545 20.589192708333336  9.090909090909092 20.46440972222222  9 20.3125  L 9 8.854166666666666  C 9.090909090909092 8.702256944444445  9.037642045454545 8.577473958333334  8.931107954545455 8.479817708333334  C 8.824573863636363 8.382161458333334  8.68844696969697 8.333333333333334  8.522727272727272 8.333333333333334  L 7.386363636363637 8.333333333333334  C 7.22064393939394 8.333333333333334  7.084517045454547 8.382161458333334  6.977982954545454 8.479817708333334  C 6.871448863636363 8.577473958333334  6.8181818181818175 8.702256944444445  7 8.854166666666666  L 7 20.3125  C 6.8181818181818175 20.46440972222222  6.871448863636363 20.589192708333336  6.977982954545454 20.686848958333336  C 7.084517045454547 20.784505208333336  7.22064393939394 20.833333333333336  7.386363636363637 20.833333333333336  L 8.522727272727272 20.833333333333336  C 8.68844696969697 20.833333333333336  8.824573863636363 20.784505208333336  8.931107954545455 20.686848958333336  Z M 13.4765625 20.686848958333336  C 13.583096590909092 20.589192708333336  13.636363636363635 20.46440972222222  13.636363636363635 20.3125  L 13.636363636363635 8.854166666666666  C 13.636363636363635 8.702256944444445  13.583096590909092 8.577473958333334  13.4765625 8.479817708333334  C 13.370028409090908 8.382161458333334  13.233901515151517 8.333333333333334  13.068181818181818 8.333333333333334  L 11.931818181818182 8.333333333333334  C 11.766098484848486 8.333333333333334  11.629971590909092 8.382161458333334  11.5234375 8.479817708333334  C 11.416903409090908 8.577473958333334  11.363636363636363 8.702256944444445  11.363636363636363 8.854166666666666  L 11.363636363636363 20.3125  C 11.363636363636363 20.46440972222222  11.416903409090908 20.589192708333336  11.5234375 20.686848958333336  C 11.629971590909092 20.784505208333336  11.766098484848486 20.833333333333336  11.931818181818182 20.833333333333336  L 13.068181818181818 20.833333333333336  C 13.233901515151517 20.833333333333336  13.370028409090908 20.784505208333336  13.4765625 20.686848958333336  Z M 18.022017045454543 20.686848958333336  C 18.128551136363637 20.589192708333336  18.181818181818183 20.46440972222222  18 20.3125  L 18 8.854166666666666  C 18.181818181818183 8.702256944444445  18.128551136363637 8.577473958333334  18.022017045454543 8.479817708333334  C 17.915482954545457 8.382161458333334  17.779356060606062 8.333333333333334  17.613636363636363 8.333333333333334  L 16.477272727272727 8.333333333333334  C 16.31155303030303 8.333333333333334  16.175426136363637 8.382161458333334  16.068892045454543 8.479817708333334  C 15.962357954545455 8.577473958333334  15.909090909090908 8.702256944444445  16 8.854166666666666  L 16 20.3125  C 15.909090909090908 20.46440972222222  15.962357954545455 20.589192708333336  16.068892045454543 20.686848958333336  C 16.175426136363637 20.784505208333336  16.31155303030303 20.833333333333336  16.477272727272727 20.833333333333336  L 17.613636363636363 20.833333333333336  C 17.779356060606062 20.833333333333336  17.915482954545457 20.784505208333336  18.022017045454543 20.686848958333336  Z M 9.392755681818182 2.2623697916666656  L 8.522727272727272 4.166666666666666  L 16.477272727272727 4.166666666666666  L 15.625 2.2623697916666656  C 15.542140151515154 2.1647135416666656  15.441524621212121 2.105034722222221  15.323153409090908 2.0833333333333344  L 9.694602272727272 2.0833333333333344  C 9.57623106060606 2.105034722222221  9.475615530303031 2.1647135416666656  9.392755681818182 2.2623697916666656  Z M 24.840198863636363 4.313151041666666  C 24.946732954545457 4.410807291666666  25 4.535590277777776  25 4.6875  L 25 5.729166666666666  C 25 5.881076388888887  24.946732954545457 6.005859375  24.840198863636363 6.103515625  C 24.733664772727273 6.201171875  24.597537878787882 6.25  24.431818181818183 6.25  L 22.727272727272727 6.25  L 22.727272727272727 21.6796875  C 22.727272727272727 22.580295138888886  22.449100378787882 23.35883246527778  21.892755681818183 24.015299479166664  C 21.336410984848484 24.671766493055554  20.667613636363637 25  19.886363636363637 25  L 5.113636363636364 25  C 4.332386363636364 25  3.663589015151516 24.6826171875  3.107244318181818 24.0478515625  C 2.5508996212121215 23.4130859375  2.272727272727273 22.645399305555554  2.272727272727273 21.744791666666664  L 2.272727272727273 6.25  L 0.5681818181818182 6.25  C 0.4024621212121212 6.25  0.2663352272727273 6.201171875  0.15980113636363638 6.103515625  C 0.05326704545454545 6.005859375  0 5.881076388888887  0 5.729166666666666  L 0 4.6875  C 0 4.535590277777776  0.05326704545454545 4.410807291666666  0.15980113636363638 4.313151041666666  C 0.2663352272727273 4.215494791666666  0.4024621212121212 4.166666666666666  0.5681818181818182 4.166666666666666  L 6.0546875 4.166666666666666  L 7.2975852272727275 1.4485677083333344  C 7.475142045454547 1.0470920138888866  7.794744318181819 0.7052951388888867  8.256392045454545 0.42317708333333426  C 8.718039772727273 0.14105902777777624  9.18560606060606 0  9.659090909090908 0  L 15.340909090909092 0  C 15.814393939393941 0  16.281960227272727 0.14105902777777624  16.743607954545457 0.42317708333333426  C 17.205255681818183 0.7052951388888867  17.524857954545457 1.0470920138888866  17.702414772727273 1.4485677083333344  L 18.9453125 4.166666666666666  L 24.431818181818183 4.166666666666666  C 24.597537878787882 4.166666666666666  24.733664772727273 4.215494791666666  24.840198863636363 4.313151041666666  Z " fill-rule="nonzero" fill="#e60000" stroke="none" transform="matrix(1 0 0 1 20 20 )" />
  </g>
</svg>