<?xml version="1.0" encoding="utf-8"?>
<svg version="1.1" xmlns:xlink="http://www.w3.org/1999/xlink" width="18px" height="18px" xmlns="http://www.w3.org/2000/svg">
  <g transform="matrix(1 0 0 1 -6 -6 )">
    <path d="M 18 5.299553571428572  C 18 4.857589285714286  17.746875 4.246874999999999  17.401339285714286 3.9013392857142852  L 14.030357142857145 0.5303571428571424  C 13.753124999999999 0.25392857142857145  13.142410714285717 0  12.700446428571428 0  L 2.571428571428571 0  C 1.1511160714285713 0  0 1.1511160714285713  0 2.571428571428571  L 0 15.428571428571427  C 0 16.84888392857143  1.1511160714285713 18  2.571428571428571 18  L 15.428571428571427 18  C 16.84888392857143 18  18 16.84888392857143  18 15.428571428571427  L 18 5.299553571428572  Z M 11.571428571428573 12.857142857142858  C 11.571428571428573 14.277053571428569  10.418303571428572 15.428571428571427  9 15.428571428571427  C 7.580089285714286 15.428571428571427  6.428571428571429 14.277053571428569  6.428571428571429 12.857142857142858  C 6.428571428571429 11.437232142857143  7.580089285714286 10.285714285714285  9 10.285714285714285  C 10.419910714285717 10.285714285714285  11.571428571428573 11.437232142857143  11.571428571428573 12.857142857142858  Z M 12.857142857142858 3.2142857142857144  L 12.857142857142858 7.071428571428571  C 12.857142857142858 7.425000000000001  12.567857142857145 7.7142857142857135  12.214285714285715 7.7142857142857135  L 3.2142857142857144 7.7142857142857135  C 2.859107142857143 7.7142857142857135  2.571428571428571 7.425000000000001  2.571428571428571 7.071428571428571  L 2.571428571428571 3.2142857142857144  C 2.571428571428571 2.860714285714286  2.859107142857143 2.571428571428571  3.2142857142857144 2.571428571428571  L 12.214285714285715 2.571428571428571  C 12.567857142857145 2.571428571428571  12.857142857142858 2.860714285714286  12.857142857142858 3.2142857142857144  Z " fill-rule="nonzero" fill="#2e2e2e" stroke="none" transform="matrix(1 0 0 1 6 6 )" />
  </g>
</svg>