<?xml version="1.0" encoding="utf-8"?>
<svg version="1.1" xmlns:xlink="http://www.w3.org/1999/xlink" width="18px" height="18px" xmlns="http://www.w3.org/2000/svg">
  <g transform="matrix(1 0 0 1 -6 -6 )">
    <path d="M 17.74793760831889 6.196842105263158  C 18.04367417677643 5.92280701754386  18.04367417677643 5.375438596491228  17.7473136915078 5.0701754385964914  L 13.039861351819757 0.22105263157894778  C 12.628076256499135 -0.20256140350877194  11.979202772963605 0.14171929824561402  11.979202772963605 0.8014035087719298  L 11.979202772963605 3.4035087719298245  C 7.524436741767763 3.460701754385965  3.993067590987868 4.459649122807017  3.993067590987868 9.178947368421053  C 3.993067590987868 11.08421052631579  5.091161178509532 12.971929824561407  6.304055459272097 13.957894736842105  C 6.682772963604852 14.266  7.221837088388215 13.879368421052632  7.082079722703639 13.380350877192983  C 5.824263431542461 8.884210526315789  7.986135181975736 7.894736842105263  11.979202772963605 7.863157894736841  L 11.979202772963605 10.466666666666667  C 11.979202772963605 11.12701754385965  12.629324090121317 11.469824561403508  13.04048526863085 11.045964912280702  L 17.74793760831889 6.196842105263158  Z M 13.975736568457538 14.631578947368421  C 13.975736568457538 14.010526315789475  13.529636048526864 13.508771929824562  12.977469670710573 13.508771929824562  C 12.426239168110918 13.508771929824562  11.979202772963605 14.01157894736842  11.979202772963605 14.631578947368421  L 11.979202772963605 15.72280701754386  L 2 15.722761403508773  L 2 4.526315789473684  L 2.9948006932409013 4.526315789473684  C 3.5460311958405546 4.526315789473684  3.993067590987868 4.023859649122808  3.993067590987868 3.4035087719298245  C 3.993067590987868 2.783157894736842  3.546967071057192 2.280701754385965  2.9948006932409013 2.280701754385965  L 1.996533795493934 2.280701754385965  C 0.8937608318890814 2.280701754385965  0 3.285964912280702  0 4.526315789473684  L 0 15.72280701754386  C 0 16.962807017543863  0.8937608318890814 17.96842105263158  1.996533795493934 17.96842105263158  L 11.979202772963605 17.968375438596492  C 13.081975736568458 17.968375438596492  13.975736568457538 16.96276140350877  13.975736568457538 15.722761403508773  L 13.975736568457538 14.631578947368421  Z " fill-rule="nonzero" fill="#2e2e2e" stroke="none" transform="matrix(1 0 0 1 6 6 )" />
  </g>
</svg>