<?xml version="1.0" encoding="utf-8"?>
<svg version="1.1" xmlns:xlink="http://www.w3.org/1999/xlink" width="15px" height="15px" xmlns="http://www.w3.org/2000/svg">
  <g transform="matrix(1 0 0 1 -401 -7 )">
    <path d="M 14.7919921875 13.93859649122807  C 15.067382812499998 13.66374269005848  15.067382812499998 13.219298245614034  14.794921875 12.944444444444445  L 11.8740234375 10.029239766081872  C 11.7421875 9.897660818713451  11.5634765625 9.82456140350877  11.3759765625 9.82456140350877  L 10.8984375 9.82456140350877  C 11.70703125 8.792397660818713  12.1875 7.494152046783626  12.1875 6.081871345029239  C 12.1875 2.722222222222222  9.4599609375 0  6.09375 0  C 2.727539062500001 0  0 2.722222222222222  0 6.081871345029239  C 0 9.441520467836257  2.7275390625 12.163742690058479  6.09375 12.163742690058479  C 7.5087890625 12.163742690058479  8.8095703125 11.684210526315791  9.84375 10.87719298245614  L 9.84375 11.353801169590643  C 9.84375 11.54093567251462  9.9169921875 11.719298245614036  10.048828125 11.850877192982457  L 12.9697265625 14.76608187134503  C 13.245117187499998 15.040935672514621  13.6904296875 15.040935672514621  13.962890624999998 14.76608187134503  L 14.7919921875 13.93859649122807  Z M 9.84375 6.081871345029239  C 9.84375 8.149122807017545  8.16796875 9.82456140350877  6.09375 9.82456140350877  C 4.0224609375 9.82456140350877  2.34375 8.152046783625732  2.34375 6.081871345029239  C 2.34375 4.014619883040936  4.01953125 2.3391812865497075  6.09375 2.3391812865497075  C 8.1650390625 2.3391812865497075  9.84375 4.011695906432748  9.84375 6.081871345029239  Z " fill-rule="nonzero" fill="#000000" stroke="none" fill-opacity="0.14901960784313725" transform="matrix(1 0 0 1 401 7 )" />
  </g>
</svg>