<?xml version="1.0" encoding="utf-8"?>
<svg version="1.1" xmlns:xlink="http://www.w3.org/1999/xlink" width="20px" height="20px" xmlns="http://www.w3.org/2000/svg">
  <g transform="matrix(1 0 0 1 -13 -10 )">
    <path d="M 5.333333333333333 7.142857142857142  C 5.333333333333333 8.177083333333332  5.614583333333333 9.129464285714286  6.177083333333333 10  C 5.052083333333334 10.037202380952381  4.131944444444445 10.513392857142856  3.416666666666667 11.428571428571427  L 2.0208333333333335 11.428571428571427  C 1.4513888888888888 11.428571428571427  0.9722222222222223 11.277901785714286  0.5833333333333334 10.9765625  C 0.19444444444444442 10.675223214285714  0 10.234375  0 9.654017857142858  C 0 7.027529761904761  0.43055555555555547 5.7142857142857135  1.2916666666666667 5.7142857142857135  C 1.3333333333333333 5.7142857142857135  1.484375 5.7924107142857135  1.7447916666666665 5.9486607142857135  C 2.0052083333333335 6.1049107142857135  2.34375 6.263020833333332  2.760416666666667 6.422991071428572  C 3.177083333333333 6.582961309523809  3.5902777777777777 6.662946428571428  4 6.662946428571428  C 4.465277777777778 6.662946428571428  4.927083333333334 6.577380952380951  5.385416666666667 6.40625  C 5.350694444444445 6.681547619047617  5.333333333333333 6.927083333333332  5.333333333333333 7.142857142857142  Z M 17.296875 15.954241071428573  C 17.321180555555557 16.32998511904762  17.333333333333336 16.715029761904763  17.333333333333336 17.109375  C 17.333333333333336 18.002232142857142  17.07986111111111 18.707217261904763  16.572916666666664 19.224330357142858  C 16.065972222222225 19.741443452380953  15.392361111111112 20  14.552083333333334 20  L 5.447916666666667 20  C 4.607638888888889 20  3.9340277777777786 19.741443452380953  3.4270833333333335 19.224330357142858  C 2.9201388888888893 18.707217261904763  2.6666666666666665 18.002232142857142  2.6666666666666665 17.109375  C 2.6666666666666665 16.715029761904763  2.6788194444444446 16.32998511904762  2.703125 15.954241071428573  C 2.7274305555555562 15.578497023809524  2.7760416666666665 15.172991071428573  2.8489583333333335 14.737723214285714  C 2.921875 14.302455357142856  3.0138888888888893 13.898809523809524  3.125 13.526785714285714  C 3.236111111111111 13.154761904761902  3.385416666666667 12.792038690476188  3.572916666666667 12.438616071428573  C 3.7604166666666665 12.08519345238095  3.9756944444444446 11.783854166666664  4.21875 11.534598214285714  C 4.461805555555555 11.285342261904763  4.758680555555556 11.086309523809524  5.109375 10.9375  C 5.4600694444444455 10.788690476190474  5.847222222222222 10.714285714285714  6.270833333333333 10.714285714285714  C 6.340277777777779 10.714285714285714  6.489583333333333 10.794270833333332  6.71875 10.954241071428573  C 6.947916666666667 11.11421130952381  7.201388888888889 11.292782738095237  7.479166666666667 11.489955357142856  C 7.7569444444444455 11.687127976190474  8.128472222222223 11.865699404761902  8.59375 12.025669642857144  C 9.059027777777779 12.185639880952381  9.527777777777779 12.265625  10 12.265625  C 10.472222222222223 12.265625  10.940972222222223 12.185639880952381  11.40625 12.025669642857144  C 11.871527777777779 11.865699404761902  12.243055555555557 11.687127976190474  12.520833333333334 11.489955357142856  C 12.79861111111111 11.292782738095237  13.052083333333332 11.11421130952381  13.28125 10.954241071428573  C 13.510416666666668 10.794270833333332  13.659722222222223 10.714285714285714  13.729166666666666 10.714285714285714  C 14.152777777777779 10.714285714285714  14.539930555555557 10.788690476190474  14.890625 10.9375  C 15.241319444444446 11.086309523809524  15.538194444444445 11.285342261904763  15.78125 11.534598214285714  C 16.024305555555557 11.783854166666664  16.239583333333336 12.08519345238095  16.427083333333336 12.438616071428573  C 16.614583333333332 12.792038690476188  16.763888888888893 13.154761904761902  16.875 13.526785714285714  C 16.986111111111114 13.898809523809524  17.078125 14.302455357142856  17.151041666666668 14.737723214285714  C 17.223958333333332 15.172991071428573  17.272569444444446 15.578497023809524  17.296875 15.954241071428573  Z M 5.885416666666666 0.8370535714285721  C 6.40625 1.395089285714286  6.666666666666666 2.068452380952379  6.666666666666666 2.857142857142858  C 6.666666666666666 3.6458333333333326  6.40625 4.319196428571428  5.885416666666666 4.877232142857142  C 5.364583333333334 5.435267857142858  4.736111111111112 5.7142857142857135  4 5.7142857142857135  C 3.2638888888888893 5.7142857142857135  2.635416666666667 5.435267857142858  2.1145833333333335 4.877232142857142  C 1.59375 4.319196428571428  1.3333333333333333 3.6458333333333326  1.3333333333333333 2.857142857142858  C 1.3333333333333333 2.068452380952379  1.59375 1.395089285714286  2.1145833333333335 0.8370535714285721  C 2.635416666666667 0.2790178571428581  3.2638888888888893 0  4 0  C 4.736111111111112 0  5.364583333333334 0.2790178571428581  5.885416666666666 0.8370535714285721  Z M 12.828125 4.1127232142857135  C 13.609375 4.9497767857142865  14 5.959821428571428  14 7.142857142857142  C 14 8.325892857142858  13.609375 9.3359375  12.828125 10.172991071428573  C 12.046875 11.010044642857144  11.104166666666666 11.428571428571427  10 11.428571428571427  C 8.895833333333336 11.428571428571427  7.953125000000001 11.010044642857144  7.171875 10.172991071428573  C 6.390625 9.3359375  6 8.325892857142858  6 7.142857142857142  C 6 5.959821428571428  6.390625 4.9497767857142865  7.171875 4.1127232142857135  C 7.953125000000001 3.275669642857142  8.895833333333336 2.857142857142858  10 2.857142857142858  C 11.104166666666666 2.857142857142858  12.046875 3.275669642857142  12.828125 4.1127232142857135  Z M 18.708333333333332 5.7142857142857135  C 19.56944444444445 5.7142857142857135  20.000000000000004 7.027529761904761  20 9.654017857142858  C 20.000000000000004 10.234375  19.805555555555557 10.675223214285714  19.416666666666668 10.9765625  C 19.02777777777778 11.277901785714286  18.548611111111114 11.428571428571427  17.979166666666664 11.428571428571427  L 16.583333333333336 11.428571428571427  C 15.868055555555557 10.513392857142856  14.947916666666668 10.037202380952381  13.822916666666668 10  C 14.385416666666666 9.129464285714286  14.666666666666666 8.177083333333332  14.666666666666666 7.142857142857142  C 14.666666666666666 6.927083333333332  14.649305555555557 6.681547619047617  14.614583333333332 6.40625  C 15.072916666666668 6.577380952380951  15.534722222222223 6.662946428571428  16 6.662946428571428  C 16.40972222222222 6.662946428571428  16.822916666666668 6.582961309523809  17.239583333333332 6.422991071428572  C 17.65625 6.263020833333332  17.994791666666668 6.1049107142857135  18.255208333333332 5.9486607142857135  C 18.515625 5.7924107142857135  18.666666666666668 5.7142857142857135  18.708333333333332 5.7142857142857135  Z M 17.885416666666668 0.8370535714285721  C 18.40625 1.395089285714286  18.666666666666668 2.068452380952379  18.666666666666668 2.857142857142858  C 18.666666666666668 3.6458333333333326  18.40625 4.319196428571428  17.885416666666668 4.877232142857142  C 17.364583333333336 5.435267857142858  16.73611111111111 5.7142857142857135  16 5.7142857142857135  C 15.26388888888889 5.7142857142857135  14.635416666666668 5.435267857142858  14.114583333333332 4.877232142857142  C 13.59375 4.319196428571428  13.333333333333332 3.6458333333333326  13.333333333333332 2.857142857142858  C 13.333333333333332 2.068452380952379  13.59375 1.395089285714286  14.114583333333332 0.8370535714285721  C 14.635416666666668 0.2790178571428581  15.26388888888889 0  16 0  C 16.73611111111111 0  17.364583333333336 0.2790178571428581  17.885416666666668 0.8370535714285721  Z " fill-rule="nonzero" fill="#000000" stroke="none" fill-opacity="0.14901960784313725" transform="matrix(1 0 0 1 13 10 )" />
  </g>
</svg>