<?xml version="1.0" encoding="utf-8"?>
<svg version="1.1" xmlns:xlink="http://www.w3.org/1999/xlink" width="20px" height="20px" xmlns="http://www.w3.org/2000/svg">
  <g transform="matrix(1 0 0 1 -13 -10 )">
    <path d="M 5.882352941176471 14.397321428571427  L 5.882352941176471 18.214285714285715  L 9.411764705882353 16.071428571428573  L 9.411764705882353 12.566964285714286  L 5.882352941176471 14.397321428571427  Z M 1.5808823529411764 11.216517857142856  L 5.294117647058823 13.147321428571427  L 9.007352941176471 11.216517857142856  L 5.294117647058823 9.285714285714286  L 1.5808823529411764 11.216517857142856  Z M 15.294117647058822 14.397321428571427  L 15.294117647058822 18.214285714285715  L 18.823529411764707 16.071428571428573  L 18.823529411764707 12.566964285714286  L 15.294117647058822 14.397321428571427  Z M 10.99264705882353 11.216517857142856  L 14.705882352941178 13.147321428571427  L 18.419117647058822 11.216517857142856  L 14.705882352941178 9.285714285714286  L 10.99264705882353 11.216517857142856  Z M 10.588235294117647 6.897321428571428  L 10.588235294117647 9.877232142857142  L 14.11764705882353 8.035714285714286  L 14.11764705882353 5.0669642857142865  L 10.588235294117647 6.897321428571428  Z M 5.946691176470589 3.537946428571428  L 10 5.647321428571428  L 14.053308823529411 3.537946428571428  L 10 1.428571428571428  L 5.946691176470589 3.537946428571428  Z M 19.80698529411765 10.647321428571427  C 19.935661764705884 10.885416666666664  20 11.145833333333332  20 11.428571428571427  L 20 16.071428571428573  C 20 16.339285714285715  19.941789215686278 16.588541666666664  19.825367647058822 16.819196428571427  C 19.708946078431374 17.04985119047619  19.549632352941178 17.22470238095238  19.347426470588236 17.34375  L 15.229779411764707 19.84375  C 15.076593137254903 19.947916666666664  14.901960784313726 20  14.705882352941178 20  C 14.50980392156863 20  14.335171568627452 19.947916666666664  14.181985294117647 19.84375  L 10.064338235294116 17.34375  C 10.03982843137255 17.328869047619047  10.018382352941178 17.313988095238095  10 17.299107142857146  C 9.987745098039216 17.313988095238095  9.966299019607845 17.328869047619047  9.935661764705882 17.34375  L 5.818014705882353 19.84375  C 5.664828431372549 19.947916666666664  5.490196078431373 20  5.294117647058823 20  C 5.098039215686275 20  4.923406862745098 19.947916666666664  4.770220588235294 19.84375  L 0.6525735294117647 17.34375  C 0.45036764705882354 17.22470238095238  0.29105392156862747 17.04985119047619  0.17463235294117646 16.819196428571427  C 0.05821078431372549 16.588541666666664  0 16.339285714285715  0 16.071428571428573  L 0 11.428571428571427  C 0 11.145833333333332  0.06587009803921567 10.885416666666664  0.19761029411764705 10.647321428571427  C 0.3293504901960784 10.40922619047619  0.5024509803921569 10.230654761904763  0.7169117647058822 10.111607142857144  L 4.705882352941177 8.035714285714286  L 4.705882352941177 3.571428571428572  C 4.705882352941177 3.2886904761904745  4.771752450980393 3.0282738095238093  4.903492647058823 2.790178571428572  C 5.035232843137255 2.5520833333333326  5.208333333333334 2.3735119047619024  5.422794117647058 2.254464285714286  L 9.540441176470589 0.1116071428571419  C 9.68137254901961 0.037202380952383596  9.834558823529411 0  10 0  C 10.165441176470589 0  10.318627450980394 0.037202380952383596  10.459558823529411 0.1116071428571419  L 14.577205882352942 2.254464285714286  C 14.791666666666668 2.3735119047619024  14.964767156862745 2.5520833333333326  15.096507352941178 2.790178571428572  C 15.22824754901961 3.0282738095238093  15.294117647058822 3.2886904761904745  15.294117647058822 3.571428571428572  L 15.294117647058822 8.035714285714286  L 19.283088235294116 10.111607142857144  C 19.503676470588236 10.230654761904763  19.678308823529413 10.40922619047619  19.80698529411765 10.647321428571427  Z " fill-rule="nonzero" fill="#262262" stroke="none" transform="matrix(1 0 0 1 13 10 )" />
  </g>
</svg>