<?xml version="1.0" encoding="utf-8"?>
<svg version="1.1" xmlns:xlink="http://www.w3.org/1999/xlink" width="20px" height="20px" xmlns="http://www.w3.org/2000/svg">
  <g transform="matrix(1 0 0 1 -13 -10 )">
    <path d="M 10 0  C 15.520848214285717 0  20 1.2834765625  20 2.8571484375000002  L 20 4.6428515625  C 20 6.2165234375  15.520848214285714 7.5  10 7.5  C 4.479151785714287 7.5  0 6.2165234375  0 4.6428515625  L 0 2.8571484375000002  C 0 1.2834765625  4.4791517857142855 0  10 0  Z M 10 8.772343750000001  C 13.919285714285717 8.772343750000001  17.85151785714286 8.1696484375  20 6.875  L 20 10.892851562499999  C 20 12.4665234375  15.520848214285714 13.75  10 13.75  C 4.479151785714287 13.75  0 12.4665234375  0 10.8928515625  L 0 6.875  C 2.1484375 8.1696484375  6.080714285714286 8.772343750000001  10 8.772343750000001  Z M 10 15.022343750000001  C 13.919285714285717 15.022343750000001  17.85151785714286 14.4196484375  20 13.125  L 20 17.1428515625  C 20 18.716523437499998  15.520848214285714 20  10 20  C 4.479151785714287 20  0 18.716523437499998  0 17.142851562500002  L 0 13.125  C 2.1484375 14.419648437500001  6.080714285714286 15.022343750000001  10 15.022343750000001  Z " fill-rule="nonzero" fill="#262262" stroke="none" transform="matrix(1 0 0 1 13 10 )" />
  </g>
</svg>