<?xml version="1.0" encoding="utf-8"?>
<svg version="1.1" xmlns:xlink="http://www.w3.org/1999/xlink" width="20px" height="20px" xmlns="http://www.w3.org/2000/svg">
  <g transform="matrix(1 0 0 1 -5 -5 )">
    <path d="M 10.491071428571427 19.765625  C 10.357142857142858 19.921875  10.193452380952381 20  10 20  C 9.80654761904762 20  9.642857142857144 19.921875  9.508928571428571 19.765625  L 2.5446428571428568 11.927083333333336  C 2.4702380952380953 11.85763888888889  2.367931547619048 11.744791666666664  2.2377232142857144 11.588541666666664  C 2.107514880952381 11.432291666666664  1.901041666666667 11.148003472222223  1.6183035714285716 10.735677083333336  C 1.3355654761904763 10.323350694444443  1.0825892857142858 9.900173611111109  0.859375 9.466145833333332  C 0.6361607142857142 9.032118055555555  0.4371279761904762 8.506944444444445  0.2622767857142857 7.890625  C 0.08742559523809523 7.274305555555554  0 6.675347222222221  0 6.09375  C 0 4.184027777777777  0.472470238095238 2.690972222222221  1.4174107142857142 1.6145833333333326  C 2.3623511904761907 0.5381944444444442  3.668154761904762 0  5.334821428571429 0  C 5.7961309523809526 0  6.266741071428571 0.09331597222222099  6.7466517857142865 0.2799479166666674  C 7.2265625 0.4665798611111094  7.672991071428571 0.718315972222221  8.0859375 1.03515625  C 8.49888392857143 1.3519965277777768  8.854166666666668 1.6493055555555536  9.151785714285714 1.9270833333333326  C 9.449404761904763 2.2048611111111094  9.732142857142858 2.5  10 2.8125  C 10.267857142857142 2.5  10.550595238095239 2.2048611111111094  10.848214285714286 1.9270833333333326  C 11.145833333333336 1.6493055555555536  11.501116071428573 1.3519965277777768  11.9140625 1.03515625  C 12.327008928571427 0.718315972222221  12.7734375 0.4665798611111094  13.253348214285714 0.2799479166666674  C 13.733258928571427 0.09331597222222099  14.20386904761905 0  14.665178571428573 0  C 16.33184523809524 0  17.63764880952381 0.5381944444444442  18.582589285714285 1.6145833333333326  C 19.527529761904763 2.690972222222221  20 4.184027777777777  20 6.09375  C 20 8.012152777777777  19.148065476190478 9.965277777777777  17.444196428571427 11.953125  L 10.491071428571427 19.765625  Z " fill-rule="nonzero" fill="#262262" stroke="none" transform="matrix(1 0 0 1 5 5 )" />
  </g>
</svg>