<?xml version="1.0" encoding="utf-8"?>
<svg version="1.1" xmlns:xlink="http://www.w3.org/1999/xlink" width="25px" height="25px" xmlns="http://www.w3.org/2000/svg">
  <g transform="matrix(1 0 0 1 -16 -21 )">
    <path d="M 13.113839285714285 24.70703125  C 12.946428571428573 24.90234375  12.741815476190476 25  12.5 25  C 12.258184523809526 25  12.05357142857143 24.90234375  11.886160714285714 24.70703125  L 3.180803571428571 14.908854166666668  C 3.087797619047619 14.82204861111111  2.9599144345238098 14.680989583333332  2.797154017857143 14.485677083333332  C 2.6343936011904763 14.290364583333332  2.3763020833333335 13.935004340277779  2.0228794642857144 13.419596354166668  C 1.6694568452380951 12.904188368055552  1.3532366071428572 12.375217013888888  1.07421875 11.832682291666666  C 0.7952008928571428 11.290147569444445  0.5464099702380953 10.633680555555555  0.32784598214285715 9.86328125  C 0.10928199404761905 9.092881944444443  0 8.344184027777777  0 7.6171875  C 0 5.230034722222221  0.5905877976190476 3.3637152777777763  1.7717633928571428 2.0182291666666656  C 2.952938988095238 0.6727430555555552  4.585193452380952 0  6.6685267857142865 0  C 7.245163690476191 0  7.8334263392857135 0.11664496527777624  8.433314732142858 0.34993489583333426  C 9.033203125 0.5832248263888867  9.591238839285714 0.8978949652777762  10.107421875 1.2939453125  C 10.623604910714288 1.689995659722221  11.067708333333336 2.061631944444442  11.439732142857142 2.4088541666666656  C 11.811755952380953 2.7560763888888866  12.165178571428571 3.125  12.5 3.515625  C 12.834821428571427 3.125  13.18824404761905 2.7560763888888866  13.560267857142858 2.4088541666666656  C 13.932291666666668 2.061631944444442  14.376395089285715 1.689995659722221  14.892578125 1.2939453125  C 15.408761160714285 0.8978949652777762  15.966796875 0.5832248263888867  16.566685267857142 0.34993489583333426  C 17.166573660714285 0.11664496527777624  17.75483630952381 0  18.331473214285715 0  C 20.41480654761905 0  22.047061011904763 0.6727430555555552  23.228236607142858 2.0182291666666656  C 24.409412202380953 3.3637152777777763  25 5.230034722222221  25 7.6171875  C 25 10.015190972222221  23.935081845238095 12.456597222222221  21.805245535714285 14.94140625  L 13.113839285714285 24.70703125  Z " fill-rule="nonzero" fill="#2e2e2e" stroke="none" transform="matrix(1 0 0 1 16 21 )" />
  </g>
</svg>