<?xml version="1.0" encoding="utf-8"?>
<svg version="1.1" xmlns:xlink="http://www.w3.org/1999/xlink" width="25px" height="25px" xmlns="http://www.w3.org/2000/svg">
  <g transform="matrix(1 0 0 1 -16 -21 )">
    <path d="M 20.591517857142858 13.411458333333332  C 22.340029761904763 11.371527777777777  23.214285714285715 9.440104166666666  23.214285714285715 7.6171875  C 23.214285714285715 6.73828125  23.114304315476193 5.962456597222221  22.914341517857142 5.289713541666666  C 22.714378720238095 4.616970486111108  22.458612351190478 4.082573784722221  22.147042410714285 3.6865234375  C 21.8354724702381 3.2904730902777763  21.45647321428572 2.9676649305555554  21.010044642857142 2.7180989583333344  C 20.563616071428573 2.4685329861111076  20.126488095238095 2.300347222222221  19.698660714285715 2.2135416666666656  C 19.270833333333336 2.1267361111111076  18.815104166666668 2.0833333333333344  18.331473214285715 2.0833333333333344  C 17.847842261904763 2.0833333333333344  17.327008928571427 2.2216796875  16.768973214285715 2.4983723958333344  C 16.2109375 2.7750651041666656  15.697079613095239 3.1222873263888866  15.227399553571427 3.5400390625  C 14.757719494047622 3.9577907986111076  14.35546875 4.348415798611108  14.020647321428573 4.7119140625  C 13.685825892857146 5.075412326388887  13.406808035714288 5.409071180555555  13.18359375 5.712890625  C 13.016183035714288 5.951605902777776  12.788318452380953 6.070963541666666  12.5 6.070963541666666  C 12.211681547619047 6.070963541666666  11.983816964285714 5.951605902777776  11.81640625 5.712890625  C 11.593191964285714 5.409071180555555  11.314174107142858 5.075412326388887  10.979352678571429 4.7119140625  C 10.64453125 4.348415798611108  10.242280505952381 3.9577907986111076  9.772600446428571 3.5400390625  C 9.302920386904763 3.1222873263888866  8.7890625 2.7750651041666656  8.231026785714286 2.4983723958333344  C 7.672991071428571 2.2216796875  7.15215773809524 2.0833333333333344  6.6685267857142865 2.0833333333333344  C 6.184895833333334 2.0833333333333344  5.729166666666668 2.1267361111111076  5.301339285714286 2.2135416666666656  C 4.873511904761905 2.300347222222221  4.436383928571429 2.4685329861111076  3.9899553571428568 2.7180989583333344  C 3.5435267857142856 2.9676649305555554  3.1645275297619047 3.2904730902777763  2.8529575892857144 3.6865234375  C 2.541387648809524 4.082573784722221  2.2856212797619047 4.616970486111108  2.085658482142857 5.289713541666666  C 1.88569568452381 5.962456597222221  1.7857142857142856 6.73828125  1.7857142857142856 7.6171875  C 1.7857142857142856 9.440104166666666  2.6553199404761907 11.366102430555555  4.39453125 13.395182291666668  L 12.5 22.509765625  L 20.591517857142858 13.411458333333332  Z M 23.228236607142858 2.0182291666666656  C 24.409412202380953 3.3637152777777763  25 5.230034722222221  25 7.6171875  C 25 10.015190972222221  23.935081845238095 12.456597222222221  21.805245535714285 14.94140625  L 13.113839285714285 24.70703125  C 12.946428571428573 24.90234375  12.741815476190476 25  12.5 25  C 12.258184523809526 25  12.05357142857143 24.90234375  11.886160714285714 24.70703125  L 3.180803571428571 14.908854166666668  C 3.087797619047619 14.82204861111111  2.9599144345238098 14.680989583333332  2.797154017857143 14.485677083333332  C 2.6343936011904763 14.290364583333332  2.3763020833333335 13.935004340277779  2.0228794642857144 13.419596354166668  C 1.6694568452380951 12.904188368055552  1.3532366071428572 12.375217013888888  1.07421875 11.832682291666666  C 0.7952008928571428 11.290147569444445  0.5464099702380953 10.633680555555555  0.32784598214285715 9.86328125  C 0.10928199404761905 9.092881944444443  0 8.344184027777777  0 7.6171875  C 0 5.230034722222221  0.5905877976190476 3.3637152777777763  1.7717633928571428 2.0182291666666656  C 2.952938988095238 0.6727430555555552  4.585193452380952 0  6.6685267857142865 0  C 7.245163690476191 0  7.8334263392857135 0.11664496527777624  8.433314732142858 0.34993489583333426  C 9.033203125 0.5832248263888867  9.591238839285714 0.8978949652777762  10.107421875 1.2939453125  C 10.623604910714288 1.689995659722221  11.067708333333336 2.061631944444442  11.439732142857142 2.4088541666666656  C 11.811755952380953 2.7560763888888866  12.165178571428571 3.125  12.5 3.515625  C 12.834821428571427 3.125  13.18824404761905 2.7560763888888866  13.560267857142858 2.4088541666666656  C 13.932291666666668 2.061631944444442  14.376395089285715 1.689995659722221  14.892578125 1.2939453125  C 15.408761160714285 0.8978949652777762  15.966796875 0.5832248263888867  16.566685267857142 0.34993489583333426  C 17.166573660714285 0.11664496527777624  17.75483630952381 0  18.331473214285715 0  C 20.41480654761905 0  22.047061011904763 0.6727430555555552  23.228236607142858 2.0182291666666656  Z " fill-rule="nonzero" fill="#000000" stroke="none" transform="matrix(1 0 0 1 16 21 )" />
  </g>
</svg>