<?xml version="1.0" encoding="utf-8"?>
<svg version="1.1" xmlns:xlink="http://www.w3.org/1999/xlink" width="15px" height="15px" xmlns="http://www.w3.org/2000/svg">
  <g transform="matrix(1 0 0 1 -1211 -19 )">
    <path d="M 14.900390625 10.844726562499998  C 14.966796875 11.336263020833332  15 11.858723958333334  15 12.412109375  C 15 13.121744791666668  14.755859375 13.73046875  14.267578125 14.23828125  C 13.779296875000002 14.74609375  13.191406250000002 15  12.50390625 15  L 2.49609375 15  C 1.80859375 15  1.2207031250000002 14.74609375  0.7324218750000001 14.23828125  C 0.24414062500000006 13.73046875  0 13.121744791666668  0 12.412109375  C 0 11.858723958333334  0.033203125000000076 11.336263020833332  0.09960937500000008 10.844726562499998  C 0.16601562500000008 10.353190104166664  0.28906250000000006 9.8583984375  0.4687500000000001 9.3603515625  C 0.6484375000000002 8.8623046875  0.8769531250000001 8.435872395833334  1.154296875 8.081054687500002  C 1.4316406250000002 7.726236979166665  1.798828125 7.436523437499999  2.255859375 7.211914062500001  C 2.712890625 6.9873046875  3.2382812500000004 6.875000000000001  3.8320312500000004 6.875000000000001  C 4.85546875 7.708333333333332  6.078125000000001 8.125000000000002  7.5 8.125000000000002  C 8.921875000000002 8.125000000000002  10.144531250000002 7.708333333333332  11.16796875 6.875000000000001  C 11.76171875 6.875000000000001  12.287109375 6.9873046875  12.744140625 7.211914062500001  C 13.201171875 7.436523437499999  13.568359375000002 7.726236979166665  13.845703125 8.081054687500002  C 14.123046875000002 8.435872395833334  14.3515625 8.8623046875  14.53125 9.3603515625  C 14.710937500000002 9.8583984375  14.833984375000002 10.353190104166664  14.900390625 10.844726562499998  Z M 10.681640625 1.0986328125  C 11.560546875 1.8310546875  12 2.7148437500000004  12 3.75  C 12 4.785156249999999  11.560546875 5.6689453125  10.681640625 6.4013671875  C 9.802734375 7.1337890625  8.7421875 7.5  7.5 7.5  C 6.2578125 7.5  5.197265625 7.1337890625  4.318359375 6.4013671875  C 3.439453125 5.6689453125  3 4.785156249999999  3 3.75  C 3 2.7148437500000004  3.439453125 1.8310546875  4.318359375 1.0986328125  C 5.197265625 0.3662109375  6.2578125 0  7.5 0  C 8.7421875 0  9.802734375 0.3662109375  10.681640625 1.0986328125  Z " fill-rule="nonzero" fill="#2e2e2e" stroke="none" transform="matrix(1 0 0 1 1211 19 )" />
  </g>
</svg>