<?xml version="1.0" encoding="utf-8"?>
<svg version="1.1" xmlns:xlink="http://www.w3.org/1999/xlink" width="12px" height="12px" xmlns="http://www.w3.org/2000/svg">
  <g transform="matrix(1 0 0 1 -70 -552 )">
    <path d="M 11.920312500000001 8.67578125  C 11.9734375 9.069010416666666  12 9.486979166666666  12 9.9296875  C 12 10.497395833333334  11.8046875 10.984375  11.4140625 11.390625  C 11.0234375 11.796875  10.553125000000001 12  10.003125 12  L 1.9968750000000002 12  C 1.446875 12  0.9765625000000001 11.796875  0.5859375000000001 11.390625  C 0.19531250000000006 10.984375  0 10.497395833333334  0 9.9296875  C 0 9.486979166666666  0.026562500000000062 9.069010416666666  0.07968750000000008 8.67578125  C 0.13281250000000006 8.282552083333332  0.23125000000000007 7.88671875  0.3750000000000001 7.48828125  C 0.5187500000000002 7.08984375  0.7015625000000001 6.748697916666667  0.9234374999999999 6.464843750000001  C 1.1453125000000002 6.180989583333332  1.4390625 5.94921875  1.8046875 5.76953125  C 2.1703124999999996 5.58984375  2.590625 5.5  3.0656250000000003 5.5  C 3.8843750000000004 6.166666666666666  4.862500000000001 6.500000000000001  6 6.500000000000001  C 7.137500000000002 6.500000000000001  8.115625000000001 6.166666666666666  8.934375 5.5  C 9.409375 5.5  9.829687499999999 5.58984375  10.1953125 5.76953125  C 10.560937500000001 5.94921875  10.8546875 6.180989583333332  11.076562500000001 6.464843750000001  C 11.298437500000002 6.748697916666667  11.48125 7.08984375  11.625 7.48828125  C 11.76875 7.88671875  11.8671875 8.282552083333332  11.920312500000001 8.67578125  Z M 8.545312500000001 0.87890625  C 9.248437500000001 1.46484375  9.600000000000001 2.1718750000000004  9.600000000000001 3  C 9.600000000000001 3.8281249999999996  9.248437500000001 4.53515625  8.545312500000001 5.12109375  C 7.8421875000000005 5.70703125  6.9937499999999995 6  6 6  C 5.00625 6  4.1578125 5.70703125  3.4546875000000004 5.12109375  C 2.7515625000000004 4.53515625  2.4000000000000004 3.8281249999999996  2.4000000000000004 3  C 2.4000000000000004 2.1718750000000004  2.7515625000000004 1.46484375  3.4546875000000004 0.87890625  C 4.1578125 0.29296875  5.00625 0  6 0  C 6.9937499999999995 0  7.8421875000000005 0.29296875  8.545312500000001 0.87890625  Z " fill-rule="nonzero" fill="#2e2e2e" stroke="none" transform="matrix(1 0 0 1 70 552 )" />
  </g>
</svg>